<?xml version="1.0" encoding="UTF-8"?>
<svg id="Camada_2" data-name="Camada 2" xmlns="http://www.w3.org/2000/svg" viewBox="0 0 771.49 721.55">
  <defs>
    <style>
      .cls-1 {
        fill: #fff;
      }
    </style>
  </defs>
  <g id="ALTERNATIVA">
    <polygon class="cls-1" points="642.92 206.82 642.59 0 494.7 0 492.85 236.24 770.85 236.25 770.86 206.82 642.92 206.82"/>
    <path class="cls-1" d="M21.69,253.51L.56,324.49c-2.55,8.58,3.88,17.21,12.83,17.21h123.83l-23.71-88.19H21.69Z"/>
    <polygon class="cls-1" points="160.41 253.51 184.12 341.69 325.91 341.69 302.2 253.51 160.41 253.51"/>
    <path class="cls-1" d="M349.09,253.51l23.71,88.19h124.28c8.83,0,15.25-8.38,12.96-16.91l-19.16-71.28h-141.79Z"/>
    <path class="cls-1" d="M69.94,91.39L26.83,236.24H108.88l4.64,17.26H21.69l-.38,1.29c-12.9,43.35,19.57,86.9,64.8,86.9h51.12L69.94,91.39Z"/>
    <path class="cls-1" d="M319.7,318.62L236.36,8.6,234.05,0H97.13l-1.08,3.63c-.97,3.25-1.01,6.7-.13,9.98l59.85,222.63h141.78l4.64,17.26H160.41s20.06,74.63,20.06,74.63c2.15,8,9.4,13.56,17.69,13.56h103.86c12.05,0,20.81-11.43,17.69-23.07Z"/>
    <path class="cls-1" d="M490.84,253.51h-141.58l-4.75-17.26h141.72l4.12,15.31s0,0,0,0L425.03,8.6h0L422.73,0h-136.92l-1.08,3.63c-.97,3.25-1.01,6.7-.13,9.98l84.56,314.52c2.15,8,9.4,13.56,17.69,13.56h34.4c46.4,0,80.34-43.41,69.6-88.19Z"/>
    <path class="cls-1" d="M770.85,253.28l-272.57,.22c6.87,16.75,20.38,40.95,46.29,60.45,28.12,21.17,56.8,26.24,70.17,27.73,50.16-.28,105.94-.56,156.11-.84v-87.57Z"/>
    <path class="cls-1" d="M737.91,354.03c-9.55,186.05-163.42,333.96-351.84,333.96S43.77,540.08,34.22,354.03H.64c9.58,204.59,178.47,367.52,385.43,367.52s375.84-162.93,385.43-367.52h-33.58Z"/>
    <g>
      <polygon class="cls-1" points="577.2 406.01 577.2 407.13 595.28 407.13 592.16 380.9 577.2 406.01"/>
      <path class="cls-1" d="M249.74,383.86c.37-1,.56-1.88,.56-2.62v-1.23c0-.6-.08-1.1-.22-1.51-.15-.41-.6-.61-1.34-.61h-17.97l-5.02,17.41,7.81-9.93h14.29c.89,0,1.52-.5,1.9-1.51Z"/>
      <path class="cls-1" d="M431.89,383.86c.37-1,.56-1.88,.56-2.62v-1.23c0-.6-.08-1.1-.22-1.51-.15-.41-.6-.61-1.34-.61h-17.97l-5.02,17.41,7.81-9.93h14.29c.89,0,1.52-.5,1.9-1.51Z"/>
      <path class="cls-1" d="M313.97,394.79c.18-.41,.28-.76,.28-1.06l.44-1.12c0-.3,.02-.52,.06-.67,.04-.15,.05-.26,.05-.34,.07-.6,.13-1.21,.17-1.84,.04-.63,.05-1.28,.05-1.95,0-1.19-.09-2.38-.28-3.57-.19-1.19-.54-2.25-1.06-3.18-.52-.93-1.25-1.67-2.18-2.23-.93-.56-2.14-.84-3.63-.84h-8.82c-.89,0-1.9,.32-3.01,.95-1.12,.63-2.22,1.47-3.29,2.51-1.08,1.04-2.08,2.22-3.01,3.52-.93,1.3-1.66,2.59-2.17,3.85-.3,.89-.56,1.73-.78,2.51-.22,.78-.37,1.47-.44,2.07-.08,.07-.11,.33-.11,.78v.67c0,1.34,.2,2.74,.61,4.19,.41,1.45,.98,2.77,1.73,3.96,.74,1.19,1.58,2.16,2.51,2.9,.93,.75,1.95,1.12,3.07,1.12h7.37c.52,0,1.32-.31,2.4-.95,1.08-.63,2.23-1.47,3.46-2.51,1.23-1.04,2.38-2.21,3.46-3.51,1.08-1.3,1.91-2.59,2.51-3.85,.22-.52,.43-.98,.61-1.39Z"/>
      <polygon class="cls-1" points="112.91 406.01 112.91 407.13 130.99 407.13 127.86 380.9 112.91 406.01"/>
      <path class="cls-1" d="M63.89,354.03c9.52,169.69,150.11,304.36,322.18,304.36s312.66-134.67,322.18-304.36H63.89Zm386.3,46.06c.37-1.93,.8-3.85,1.28-5.75,.48-1.9,1.02-4.11,1.62-6.64l7.03-24.78h16.85c-2.08,7.59-3.68,13.49-4.8,17.69-1.12,4.2-1.95,7.35-2.51,9.43-.56,2.09-.89,3.4-1,3.96-.11,.56-.17,.95-.17,1.17-.15,.67-.26,1.3-.34,1.9-.08,.6-.11,1.15-.11,1.67,0,2.61,.57,4.63,1.73,6.08,1.15,1.45,2.44,2.17,3.85,2.17h4.35c1.41,0,2.73-.37,3.96-1.12,1.23-.74,2.31-1.67,3.24-2.79,.93-1.12,1.75-2.31,2.46-3.57,.7-1.27,1.28-2.42,1.73-3.46l9.71-33.15h16.96l-8.04,27.57c-1.49,5.13-3,9.66-4.52,13.56-1.53,3.91-3.28,7.2-5.25,9.88-1.97,2.68-4.26,4.71-6.86,6.08-2.61,1.38-5.69,2.07-9.26,2.07h-10.38c-4.24,0-7.76-.31-10.55-.95-2.79-.63-5.02-1.62-6.7-2.96-1.68-1.34-2.87-3.07-3.57-5.19-.71-2.12-1.06-4.67-1.06-7.64,0-.82,.02-1.64,.06-2.46,.04-.82,.13-1.75,.28-2.79Zm-317.3,21.99l-1.9-12.61c-.15,.45-.57,1.3-1.28,2.57-.71,1.27-1.53,2.61-2.46,4.02-.93,1.42-1.84,2.72-2.73,3.91-.89,1.19-1.56,1.9-2.01,2.12h-37.72c.15-.6,.22-.86,.22-.78v-.34l32.14-51.34c.15-.44,.48-1.04,1-1.78,.52-.74,1.1-1.47,1.73-2.18,.63-.71,1.26-1.34,1.9-1.9,.63-.56,1.17-.84,1.62-.84h14.95c.6,0,1.13,.41,1.62,1.23,.48,.82,.91,1.83,1.28,3.01,.37,1.19,.69,2.44,.95,3.74,.26,1.3,.5,2.4,.73,3.29l5.91,47.88h-15.96Zm22.21-13.84c-1.71-3.5-2.57-7.92-2.57-13.28,0-3.57,.61-7.25,1.84-11.05,1.23-3.79,2.9-7.25,5.02-10.38,2.12-3.12,4.59-5.67,7.42-7.64,2.83-1.97,5.8-2.96,8.93-2.96h36.94c-1.71,2.83-3.44,5.49-5.19,7.98-1.75,2.49-3.7,4.85-5.86,7.09h-23.21c-.97,0-1.88,.32-2.73,.95-.86,.63-1.66,1.47-2.4,2.51-.75,1.04-1.42,2.22-2.01,3.52-.6,1.3-1.08,2.59-1.45,3.85-.22,.89-.41,1.73-.56,2.51-.15,.78-.22,1.47-.22,2.07,0,1.41,.3,2.92,.89,4.52,.6,1.6,1.34,3.07,2.23,4.41,.89,1.34,1.9,2.46,3.01,3.35,1.12,.89,2.19,1.34,3.24,1.34h5.36l2.01-7.25h-10.04v-.11c.07-.22,.44-.95,1.12-2.17,.67-1.23,1.47-2.6,2.4-4.13,.93-1.52,1.94-3.05,3.01-4.58,1.08-1.52,2.03-2.7,2.85-3.52h21.43l-11.16,36.83h-13.39c-3.65,0-7.24-.41-10.77-1.23-3.53-.82-6.68-2.25-9.43-4.3-2.75-2.04-4.99-4.82-6.7-8.32Zm20.38,59.84c-9.54,3.57-13.84,3.52-15.9-1.99s2.75-9.19,12.3-12.76c9.54-3.57,22.85-6.65,24.9-1.14,2.06,5.51-11.76,12.32-21.3,15.89Zm45.55,50.38c-7.65,6.72-13.67,8.85-18.06,3.85-4.4-5.01,.03-10.2,7.68-16.92s17.76-14.29,22.16-9.29c4.4,5.01-4.12,15.64-11.77,22.36Zm3.82-117.58l-1,.89-5.91,20.31h-17.19l17.3-59.15h39.84c2.16,0,3.89,.56,5.19,1.68,1.3,1.12,2.29,2.53,2.96,4.24,.67,1.71,1.12,3.57,1.34,5.58,.22,2.01,.34,3.87,.34,5.58,0,3.8-.74,6.92-2.23,9.37-1.49,2.46-3.37,4.41-5.64,5.86-2.27,1.45-4.74,2.49-7.42,3.12-2.68,.63-5.21,1.06-7.59,1.28l17.52,22.43h-19.2l-18.3-21.21Zm47.73,156.59c-6.4,7.92-12.71,9.21-16.63,6.04-3.93-3.17-3.99-9.61,2.41-17.53,6.4-7.92,18.62-16.53,22.55-13.35,3.93,3.17-1.93,16.93-8.33,24.85Zm18.93-76.67c-6.4,7.92-12.71,9.21-16.63,6.04-3.93-3.17-3.99-9.61,2.41-17.53,6.4-7.92,18.62-16.53,22.55-13.35,3.93,3.17-1.93,16.93-8.33,24.85Zm.53-58.71c-3.27,0-6.31-.34-9.1-1-2.79-.67-5.21-1.8-7.25-3.4-2.05-1.6-3.65-3.77-4.8-6.53-1.15-2.75-1.73-6.21-1.73-10.38,0-.89,.04-1.82,.11-2.79,.07-.97,.18-1.97,.33-3.01,.45-4.02,1.52-7.94,3.24-11.77,1.71-3.83,3.83-7.26,6.36-10.27,2.53-3.01,5.36-5.43,8.48-7.25,3.13-1.82,6.25-2.74,9.38-2.74h13.28c6.77,0,12.11,1.6,16.02,4.8,3.91,3.2,5.86,8.48,5.86,15.85,0,1.04-.04,2.08-.11,3.12-.08,1.04-.19,2.16-.34,3.35-.52,4.17-1.67,8.19-3.46,12.05-1.79,3.87-3.98,7.28-6.59,10.21-2.6,2.94-5.56,5.3-8.87,7.09-3.31,1.79-6.75,2.68-10.32,2.68h-10.49Zm38.43,154.11c-2.62,9.84-6.16,16.07-12.6,14.36-6.44-1.72-10.38-7.9-7.76-17.75,2.62-9.84,11.55-22.34,17.99-20.63,6.44,1.72,4.99,14.17,2.37,24.02Zm33.99-71.96c-2.48,9.88-5.92,16.16-12.38,14.54-6.46-1.62-10.5-7.75-8.02-17.63s11.22-22.51,17.68-20.89c6.46,1.62,5.2,14.1,2.72,23.98Zm-13.61-103.91l-6.36,21.76h-17.08l17.3-59.15h50.89c-.45,1.04-1.15,2.4-2.12,4.08-.97,1.67-2.01,3.33-3.13,4.97-1.12,1.64-2.2,3.05-3.24,4.24-1.04,1.19-1.79,1.78-2.23,1.78h-27.57l-5.02,17.52,8.48-10.27h20.65l-12.84,15.07h-17.74Zm31.18,199.6c-6.66,0-12.06-4.98-12.05-15.16,.01-10.19,5.43-24.56,12.09-24.55,6.66,0,12.05,14.39,12.04,24.57-.01,10.19-5.42,15.15-12.08,15.14Zm24.96-199.04l-1,.89-5.91,20.31h-17.19l17.3-59.15h39.84c2.16,0,3.89,.56,5.19,1.68,1.3,1.12,2.29,2.53,2.96,4.24,.67,1.71,1.12,3.57,1.34,5.58,.22,2.01,.34,3.87,.34,5.58,0,3.8-.74,6.92-2.23,9.37-1.49,2.46-3.37,4.41-5.64,5.86-2.27,1.45-4.74,2.49-7.42,3.12-2.68,.63-5.21,1.06-7.59,1.28l17.52,22.43h-19.2l-18.3-21.21Zm33.14,93.67c-4.39-9.19-6.88-23.93-2.32-26.1,4.56-2.17,14.44,9.04,18.83,18.23,4.39,9.19,2.83,15.44-1.73,17.61-4.56,2.17-10.39-.54-14.77-9.74Zm24.39,91.71c-6.29,2.21-13.03-.68-16.41-10.29-3.38-9.61-3.05-24.96,3.23-27.17,6.29-2.21,16.15,9.55,19.54,19.16,3.38,9.61-.07,16.09-6.36,18.3Zm20.35-121.19c-6.71-7.67-10.87-13.26-7.07-16.58,3.8-3.32,12.81,1.09,19.51,8.76,6.71,7.67,8.21,9.89,4.41,13.21-3.8,3.32-10.15,2.28-16.86-5.39Zm44.02,83.72c-5.09,4.3-9.61,.98-17.14-4.7-8.13-6.14-15.06-19.87-9.97-24.16,5.09-4.3,17.23,4.6,23.8,12.38,6.57,7.79,8.4,12.18,3.31,16.48Zm-8.62-126.71l12.84-44.09h-16.85v-.11c.07-.3,.5-1.12,1.28-2.46,.78-1.34,1.73-2.82,2.85-4.46,1.12-1.64,2.25-3.22,3.4-4.74,1.15-1.52,2.14-2.62,2.96-3.29h44.75c-.44,1.04-1.15,2.4-2.12,4.08-.97,1.67-2.01,3.33-3.12,4.97-1.12,1.64-2.2,3.05-3.24,4.24-1.04,1.19-1.78,1.78-2.23,1.78h-10.6l-12.84,44.09h-17.08Zm54.04,83.78c-3.59,4.66-10.43,5.41-18.5-.8-8.07-6.21-16.55-18.76-12.97-23.42,3.59-4.66,16.02,2.75,24.09,8.97,8.07,6.21,10.96,10.6,7.37,15.26Zm19.27-42.47c-9.21-4.35-16.92-10.75-14.41-16.06,2.51-5.32,9.91-1.64,19.12,2.72,9.21,4.35,12.89,3.49,13.53,10.19,.57,5.85-9.04,7.51-18.25,3.15Zm3.59-41.31l-1.9-12.61c-.15,.45-.57,1.3-1.28,2.57-.71,1.27-1.53,2.61-2.46,4.02-.93,1.42-1.84,2.72-2.73,3.91-.89,1.19-1.56,1.9-2.01,2.12h-37.72c.15-.6,.22-.86,.22-.78v-.34l32.14-51.34c.15-.44,.48-1.04,1-1.78,.52-.74,1.1-1.47,1.73-2.18,.63-.71,1.26-1.34,1.9-1.9,.63-.56,1.17-.84,1.62-.84h14.95c.6,0,1.13,.41,1.62,1.23,.48,.82,.91,1.83,1.28,3.01,.37,1.19,.69,2.44,.95,3.74,.26,1.3,.5,2.4,.73,3.29l5.92,47.88h-15.96Zm79.24-43.97h-29.47c-.67,0-1.25,.56-1.73,1.68-.48,1.12-.73,2.01-.73,2.68v.56c0,.08,.11,.24,.34,.5,.22,.26,.41,.47,.56,.61,.22,.3,.56,.58,1,.84,.44,.26,.7,.39,.78,.39h16.96c2.01,0,3.7,.58,5.08,1.73,1.37,1.15,2.49,2.61,3.35,4.35,.85,1.75,1.47,3.63,1.84,5.64,.37,2.01,.56,3.87,.56,5.58v.67c0,1.94-.35,4-1.06,6.2-.71,2.2-1.66,4.22-2.85,6.08-1.19,1.86-2.53,3.4-4.02,4.63-1.49,1.23-3.05,1.84-4.69,1.84h-45.54c.3-.74,.91-1.94,1.84-3.57,.93-1.64,1.91-3.29,2.96-4.97,1.04-1.68,1.99-3.16,2.85-4.47,.86-1.3,1.4-1.95,1.62-1.95h30.36c.89,0,1.41-.33,1.56-1,.15-.67,.22-1.38,.22-2.12v-1.34c0-.6-.08-1.21-.22-1.84-.15-.63-.48-.95-1-.95h-17.86c-1.79,0-3.4-.54-4.86-1.62-1.45-1.08-2.68-2.46-3.68-4.13-1-1.68-1.78-3.52-2.34-5.52-.56-2.01-.84-3.98-.84-5.92,0-1.78,.41-3.81,1.23-6.08,.82-2.27,1.9-4.43,3.24-6.47,1.34-2.04,2.83-3.76,4.46-5.13,1.64-1.38,3.31-2.07,5.02-2.07h45.53c-1.41,2.53-2.98,5.06-4.69,7.59-1.71,2.53-3.65,5.06-5.8,7.59Z"/>
    </g>
  </g>
</svg>