<?xml version="1.0" encoding="UTF-8"?>
<svg id="Camada_2" data-name="Camada 2" xmlns="http://www.w3.org/2000/svg" viewBox="0 0 962 439.96">
  <defs>
    <style>
      .cls-1, .cls-2 {
        fill: #fff;
      }

      .cls-3 {
        letter-spacing: -.01em;
      }

      .cls-4 {
        letter-spacing: 0em;
      }

      .cls-5 {
        letter-spacing: 0em;
      }

      .cls-6 {
        letter-spacing: -.01em;
      }

      .cls-2 {
        font-family: Questrial-Regular, Questrial;
        font-size: 47.15px;
      }

      .cls-7 {
        letter-spacing: 0em;
      }
    </style>
  </defs>
  <g id="Layer_1" data-name="Layer 1">
    <path class="cls-1" d="M562.55,226.86c71.49-115.85-64.95-186.41-200.23-165.99,7.53,67.7,17.19,163.65,107.51,152.2,22.25-5.31,36.62-18.01,62.47-9.58-27.63-42.13-71.18-25.24-88.51-11.53,18.34-22.25,46.48-23.47,61.3-18.66-22.03-34-64.27-38.75-92.5-20.44,15.68-18.41,39.28-20.62,50.28-18.65-17.89-18.15-49.76-40.45-71.62-50.76,62.17,21.49,132.17,68.14,171.3,143.42Z"/>
    <path class="cls-1" d="M637.63,0c-1.68,1.06-118.24,35.44-97.6,79.86,2.03,2.65,4.5,3.77,7.78,5.22,25.15,7.94,28.24,34.97,28.5,40.06,20.43-27.3,7.05-56.07-6.84-72.72,15.56,3.56,26.07,16.13,29.83,34.39,10.47-20.38,21.6-48.69,27.76-70.44,1.5,64.58-27.68,102.26-37.49,131.53-3.08,18.91,103.37,24.16,48.06-147.9Z"/>
    <g>
      <path class="cls-1" d="M98.67,273.54c0,26.58-17.59,44.17-50.29,44.17H30.02v31.74c0,4.4-2.1,5.55-5.54,5.55H5.54c-3.44,0-5.54-1.15-5.54-5.55v-114.73c0-3.44,1.15-5.55,5.54-5.55H48.57c32.89,0,50.1,17.97,50.1,44.36Zm-28.87,.57c0-9.94-6.5-17.97-21.42-17.97H30.02v35.76h18.36c14.91,0,21.42-8.22,21.42-17.78Z"/>
      <path class="cls-1" d="M210.72,333.78v15.68c0,3.44-1.15,5.55-5.55,5.55H125.63c-4.4,0-5.54-2.1-5.54-5.55v-114.73c0-4.4,2.1-5.55,5.54-5.55h18.93c3.44,0,5.54,1.15,5.54,5.55v93.5h55.07c4.4,0,5.55,2.1,5.55,5.55Z"/>
      <path class="cls-1" d="M336.34,355h-20.08c-4.21,0-5.74-1.15-7.27-5.74l-5.35-15.11h-46.85l-5.35,15.11c-1.53,4.59-3.06,5.74-7.27,5.74h-20.08c-4.21,0-4.21-3.06-3.25-5.35l42.45-114.54c1.53-4.02,3.63-5.93,7.84-5.93h18.36c4.21,0,6.12,1.91,7.84,5.93l42.26,114.54c.96,2.29,.96,5.35-3.25,5.35Zm-41.69-47.61l-14.34-42.26-14.34,42.26h28.68Z"/>
      <path class="cls-1" d="M458.72,234.73v114.73c0,3.44-1.15,5.55-5.55,5.55h-17.4c-4.78,0-6.12-2.68-8.6-6.5l-40.54-65.59v66.54c0,4.4-2.1,5.55-5.54,5.55h-18.93c-3.44,0-5.54-1.15-5.54-5.55v-114.73c0-3.44,1.15-5.55,5.54-5.55h17.97c4.78,0,6.12,2.68,8.6,6.5l40.54,65.4v-66.35c0-4.4,2.1-5.55,5.54-5.55h18.36c3.44,0,5.55,1.15,5.55,5.55Z"/>
      <path class="cls-1" d="M592,355h-20.08c-4.21,0-5.74-1.15-7.27-5.74l-5.35-15.11h-46.85l-5.36,15.11c-1.53,4.59-3.06,5.74-7.27,5.74h-20.08c-4.21,0-4.21-3.06-3.25-5.35l42.45-114.54c1.53-4.02,3.63-5.93,7.84-5.93h18.36c4.21,0,6.12,1.91,7.84,5.93l42.26,114.54c.96,2.29,.96,5.35-3.25,5.35Zm-41.68-47.61l-14.34-42.26-14.34,42.26h28.68Z"/>
      <path class="cls-1" d="M711.32,290.37v27.73c-1.72,27.53-29.64,39.77-51.44,39.77s-51.44-11.47-51.44-41.49v-47.04c0-30.21,28.87-43.02,51.44-43.02,23.9,0,51.44,13.77,51.44,39.39,0,4.59-1.15,5.35-5.55,5.35h-18.55c-5.35,0-4.59-3.82-5.55-6.5-2.1-5.93-8.99-11.66-21.8-11.66s-21.03,8.41-21.03,20.65v38.43c0,12.24,8.41,19.31,21.03,19.31s21.22-5.74,21.22-20.46h-17.21c-4.4,0-5.54-2.1-5.54-5.55v-14.91c0-3.44,1.15-5.55,5.54-5.55h41.88c4.4,0,5.55,2.1,5.55,5.55Z"/>
      <path class="cls-1" d="M835.99,355h-22.56c-4.59,0-6.88-1.72-9.56-5.74l-20.65-30.79c-1.72-2.29-2.1-4.4-2.1-9.75v-15.3c0-3.44,1.15-5.55,5.55-5.55h3.82c9.37,0,18.16-6.5,18.16-15.49,0-9.94-7.65-16.25-17.59-16.25h-25.43v93.31c0,4.4-2.1,5.55-5.55,5.55h-18.93c-3.44,0-5.35-1.15-5.35-5.55v-114.54c0-3.44,.96-5.55,5.35-5.55h48.19c20.84,0,30.02,4.21,38.05,12.24,7.07,6.88,11.09,17.78,11.09,30.02,0,20.08-14.72,34.04-26.58,38.05l26.96,39.2c1.72,2.68,.77,6.12-2.87,6.12Z"/>
      <path class="cls-1" d="M962,314.65c0,30.21-28.68,43.21-51.44,43.21s-51.05-13-51.05-43.21v-45.13c0-30.21,28.3-43.21,51.05-43.21s51.44,13,51.44,43.21v45.13Zm-30.02-42.45c0-12.24-8.8-19.31-21.42-19.31s-21.22,7.07-21.22,19.31v39.77c0,12.24,8.8,19.31,21.22,19.31s21.42-7.07,21.42-19.31v-39.77Z"/>
    </g>
    <text class="cls-2" transform="translate(89.48 430.05)"><tspan x="0" y="0">Consul</tspan><tspan class="cls-7" x="144.89" y="0">t</tspan><tspan x="159.79" y="0">oria e P</tspan><tspan class="cls-6" x="316.32" y="0">r</tspan><tspan x="331.97" y="0">oj</tspan><tspan class="cls-4" x="368.23" y="0">e</tspan><tspan class="cls-7" x="394.21" y="0">t</tspan><tspan x="409.1" y="0">os </tspan><tspan class="cls-5" x="468.47" y="0">A</tspan><tspan x="499.25" y="0">g</tspan><tspan class="cls-3" x="527.31" y="0">r</tspan><tspan x="542.96" y="0">opecuários </tspan></text>
  </g>
</svg>