<?xml version="1.0" encoding="UTF-8"?>
<svg id="Camada_2" data-name="Camada 2" xmlns="http://www.w3.org/2000/svg" viewBox="0 0 441.83 252.9">
  <defs>
    <style>
      .cls-1 {
        fill: #fff;
        fill-rule: evenodd;
      }
    </style>
  </defs>
  <g id="Camada_1-2" data-name="Camada 1">
    <path class="cls-1" d="M0,0H23.02l46.77,102.7L114.92,0h22.8l-49.12,114.04c-3.54,8.15-9.65,12.22-18.34,12.22-5.17-.18-9.17-1.42-12.21-3.54-2.83-2.12-5.65-5.85-8-10.98L0,0ZM69.26,182.3v-4.54c-3.01,3.5-7.39,5.3-13.24,5.3-3.75,0-7.22-.76-10.4-2.34-3.11-1.58-5.58-3.78-7.32-6.54-1.73-2.82-2.63-6.05-2.63-9.7s.81-6.81,2.36-9.7c1.55-2.88,3.93-5.08,7.13-6.59,3.09-1.58,6.67-2.35,10.5-2.35,2.82,0,5.39,.48,7.67,1.38,2.18,.91,4.02,2.07,5.38,3.51v-17.68h8.03v49.25h-7.48Zm-25.36-17.82c0,4.54,1.28,7.99,3.82,10.26,2.55,2.27,5.57,3.37,9.14,3.37s6.48-1.09,8.95-3.23c2.45-2.13,3.64-5.43,3.64-9.9,0-4.82-1.28-8.39-3.75-10.66-2.46-2.34-5.56-3.44-9.22-3.44s-6.57,1.11-9.03,3.31c-2.38,2.1-3.55,5.62-3.55,10.29h0Zm42.53-.07c0-6.54,2.47-11.42,7.32-14.64,4.1-2.62,9.03-3.93,14.87-3.93,6.59,0,11.88,1.59,15.98,4.82,4.12,3.16,6.21,7.63,6.21,13.27,0,4.62-.9,8.19-2.74,10.81-1.82,2.61-4.48,4.68-7.94,6.12-3.56,1.51-7.3,2.2-11.5,2.2-6.57,0-11.96-1.58-16.06-4.82-4.14-3.17-6.14-7.77-6.14-13.83h0Zm8.21,.07c0,4.54,1.38,7.99,4.02,10.19,2.65,2.27,5.94,3.43,9.95,3.43s7.32-1.16,10.06-3.43c2.63-2.27,3.91-5.72,3.91-10.39,0-4.41-1.36-7.77-4.02-10.04-2.63-2.27-5.94-3.38-9.95-3.38s-7.3,1.11-9.95,3.38c-2.64,2.27-4.02,5.63-4.02,10.24h0Zm53.49-37.48h22.1v82c0,10.09,3.06,17.52,9.41,21.95,6.11,4.42,13.86,6.73,23.02,6.73,7.06,0,12.93-1.42,17.64-4.08,4.93-2.83,8.46-6.19,11.05-10.45,2.35-4.24,3.52-8.32,3.52-12.56V127h22.1v82.34c0,8.85-2.37,16.47-7.52,23.2-4.95,6.55-11.52,11.51-19.99,15.05-8.69,3.54-17.87,5.31-27.73,5.31-7.28,0-14.34-1.07-20.69-3.19-6.57-1.95-12.22-4.78-17.39-8.67-4.93-3.71-8.69-8.14-11.52-13.45-2.59-5.14-4-10.81-4-17V127h0Zm130.45,39.14h19.74v9.92c2.58-3.36,6.58-6.2,11.52-8.32,5.17-2.31,11.04-3.37,17.87-3.37h6.35v14.88h-4.93c-10.58,0-18.1,2.82-22.58,8.67-4.46,5.83-7.04,12.04-7.28,18.59v44.62h-20.67v-84.99h-.02Zm65.1,0h20.69v51.18c.23,4.07,1.65,7.61,4.23,10.79,2.59,3.01,5.87,5.49,9.87,7.08,4.22,1.77,8.45,2.66,12.93,2.84,7.74,0,14.32-2.12,19.49-6.38,5.17-4.24,8-9.02,8.47-14.33v-51.18h20.67v50.46c0,6.73-2.11,12.93-6.11,18.41-4.23,5.5-9.86,9.92-17.39,13.1-7.28,3.19-15.75,4.78-25.14,4.78-13.41-.35-24.69-3.71-33.86-9.92-9.17-6.2-13.86-15.75-13.86-28.51v-48.32h0Zm-108.9-42.02v-49.05c-.22-4.24-1.87-8.15-4.93-11.69-3.04-3.54-7.28-6.19-12.69-8.15-5.63-1.94-11.98-3.01-19.5-3.01-5.17,0-10.58,.89-16.23,2.66-5.63,1.94-10.33,4.96-14.32,9.21-4,4.42-6.11,9.92-6.35,16.82,0,6.19,1.63,11.51,5.17,16.11,3.52,4.61,7.98,7.97,13.87,10.46,5.63,2.3,11.52,3.54,17.86,3.54,10.81,0,20.45-3.9,28.91-11.86v18.77c-4.47,2.12-7.76,3.54-9.63,4.43-2.13,.88-4.71,1.6-8.24,2.3-3.28,.7-7.52,1.06-12.93,1.24-9.17,0-18.11-1.94-26.8-5.5-8.45-3.71-15.5-9.02-20.91-15.93-5.41-6.73-8-14.7-8-23.55,0-7.97,2.35-15.41,6.82-21.95,4.46-6.55,11.28-11.88,20.21-15.77,8.93-3.89,19.73-5.83,32.19-5.83,8.93,0,17.17,1.05,24.21,3.17,7.3,1.96,13.17,4.96,18.1,8.51,4.69,3.54,8.24,7.78,10.82,12.39,2.35,4.78,3.52,9.74,3.52,14.87v47.81h-21.15ZM280.61,0h20.69V124.13h-20.69V0Zm72.15,83.57l56.17-23.37c-3.04-2.47-6.35-4.42-9.87-5.83-3.52-1.42-8.93-2.14-16.45-2.14s-13.63,1.42-19.04,4.08c-5.65,2.84-9.87,6.55-12.69,11.16-3.06,4.77-4.48,9.92-4.48,15.58,.24,4.78,1.89,9.21,4.93,13.63,2.83,4.25,7.06,7.62,12.69,10.27,5.41,2.66,11.99,4.08,19.52,4.08,11.52-.17,19.97-2.48,25.62-6.9,5.63-4.43,9.63-10.98,11.98-19.83l20.69,2.12c0,4.07-1.42,8.5-4,12.93-2.59,4.61-6.35,8.85-11.28,12.93-5.17,4.24-11.52,7.43-18.8,10.09-7.52,2.47-15.98,3.89-25.62,3.89s-19.28-1.95-28.21-5.85c-8.93-3.89-15.98-9.02-21.14-15.58-5.41-6.55-8-13.63-8-21.25s1.65-14.51,5.17-20.36c3.54-5.83,8-10.79,13.87-14.52,5.65-3.89,11.99-6.73,18.81-8.5,6.81-1.95,13.39-2.82,19.97-2.82,12.93,0,23.73,2.12,32.66,6.54,8.69,4.43,16.21,11.16,22.56,20.37l-76.15,31.87-8.91-12.59Z"/>
  </g>
</svg>