<?xml version="1.0" encoding="UTF-8"?>
<svg id="Camada_2" data-name="Camada 2" xmlns="http://www.w3.org/2000/svg" xmlns:xlink="http://www.w3.org/1999/xlink" viewBox="0 0 804.2 522.3">
  <defs>
    <style>
      .cls-1 {
        clip-path: url(#clippath-45);
      }

      .cls-2 {
        clip-path: url(#clippath-20);
      }

      .cls-3 {
        clip-path: url(#clippath-11);
      }

      .cls-4 {
        clip-path: url(#clippath-16);
      }

      .cls-5 {
        fill: #fff;
      }

      .cls-6 {
        clip-path: url(#clippath-33);
      }

      .cls-7 {
        clip-path: url(#clippath-41);
      }

      .cls-8 {
        clip-path: url(#clippath-32);
      }

      .cls-9 {
        clip-path: url(#clippath-2);
      }

      .cls-10 {
        clip-path: url(#clippath-13);
      }

      .cls-11 {
        clip-path: url(#clippath-37);
      }

      .cls-12 {
        clip-path: url(#clippath-46);
      }

      .cls-13 {
        clip-path: url(#clippath-25);
      }

      .cls-14 {
        clip-path: url(#clippath-15);
      }

      .cls-15 {
        clip-path: url(#clippath-6);
      }

      .cls-16 {
        fill: #2f1b0b;
      }

      .cls-17 {
        clip-path: url(#clippath-40);
      }

      .cls-18 {
        clip-path: url(#clippath-26);
      }

      .cls-19 {
        clip-path: url(#clippath-7);
      }

      .cls-20 {
        clip-path: url(#clippath-21);
      }

      .cls-21 {
        clip-path: url(#clippath-34);
      }

      .cls-22 {
        clip-path: url(#clippath-1);
      }

      .cls-23 {
        clip-path: url(#clippath-4);
      }

      .cls-24 {
        clip-path: url(#clippath-38);
      }

      .cls-25 {
        clip-path: url(#clippath-36);
      }

      .cls-26 {
        clip-path: url(#clippath-27);
      }

      .cls-27 {
        clip-path: url(#clippath-44);
      }

      .cls-28 {
        clip-path: url(#clippath-12);
      }

      .cls-29 {
        clip-path: url(#clippath-24);
      }

      .cls-30 {
        clip-path: url(#clippath-30);
      }

      .cls-31 {
        clip-path: url(#clippath-22);
      }

      .cls-32 {
        clip-path: url(#clippath-9);
      }

      .cls-33 {
        clip-path: url(#clippath);
      }

      .cls-34 {
        clip-path: url(#clippath-39);
      }

      .cls-35 {
        fill: none;
      }

      .cls-36 {
        clip-path: url(#clippath-19);
      }

      .cls-37 {
        clip-path: url(#clippath-31);
      }

      .cls-38 {
        clip-path: url(#clippath-3);
      }

      .cls-39 {
        clip-path: url(#clippath-43);
      }

      .cls-40 {
        clip-path: url(#clippath-8);
      }

      .cls-41 {
        clip-path: url(#clippath-29);
      }

      .cls-42 {
        clip-path: url(#clippath-18);
      }

      .cls-43 {
        clip-path: url(#clippath-14);
      }

      .cls-44 {
        clip-path: url(#clippath-17);
      }

      .cls-45 {
        clip-path: url(#clippath-5);
      }

      .cls-46 {
        clip-path: url(#clippath-42);
      }

      .cls-47 {
        clip-path: url(#clippath-10);
      }

      .cls-48 {
        clip-path: url(#clippath-23);
      }

      .cls-49 {
        fill: #b0212c;
      }

      .cls-50 {
        clip-path: url(#clippath-28);
      }

      .cls-51 {
        clip-path: url(#clippath-35);
      }
    </style>
    <clipPath id="clippath">
      <rect class="cls-35" x="437.14" y="58.47" width="136.13" height="271.31"/>
    </clipPath>
    <clipPath id="clippath-1">
      <rect class="cls-35" x="443.43" y="84.53" width="11.68" height="11.68"/>
    </clipPath>
    <clipPath id="clippath-2">
      <path class="cls-35" d="M573.26,59.1h-.2c-74.9,0-135.61,60.58-135.61,135.33s60.71,135.33,135.61,135.33c.07,0,.13,0,.2,0V59.1Z"/>
    </clipPath>
    <clipPath id="clippath-3">
      <rect class="cls-35" x="449.72" y="104.29" width="4.49" height="5.39"/>
    </clipPath>
    <clipPath id="clippath-4">
      <path class="cls-35" d="M573.26,59.1h-.2c-74.9,0-135.61,60.58-135.61,135.33s60.71,135.33,135.61,135.33c.07,0,.13,0,.2,0V59.1Z"/>
    </clipPath>
    <clipPath id="clippath-5">
      <rect class="cls-35" x="442.53" y="113.28" width="3.59" height="3.59"/>
    </clipPath>
    <clipPath id="clippath-6">
      <path class="cls-35" d="M573.26,59.1h-.2c-74.9,0-135.61,60.58-135.61,135.33s60.71,135.33,135.61,135.33c.07,0,.13,0,.2,0V59.1Z"/>
    </clipPath>
    <clipPath id="clippath-7">
      <rect class="cls-35" x="461.4" y="92.61" width="3.59" height="3.59"/>
    </clipPath>
    <clipPath id="clippath-8">
      <path class="cls-35" d="M573.26,59.1h-.2c-74.9,0-135.61,60.58-135.61,135.33s60.71,135.33,135.61,135.33c.07,0,.13,0,.2,0V59.1Z"/>
    </clipPath>
    <clipPath id="clippath-9">
      <rect class="cls-35" x="443.43" y="128.55" width="4.49" height="4.49"/>
    </clipPath>
    <clipPath id="clippath-10">
      <path class="cls-35" d="M573.26,59.1h-.2c-74.9,0-135.61,60.58-135.61,135.33s60.71,135.33,135.61,135.33c.07,0,.13,0,.2,0V59.1Z"/>
    </clipPath>
    <clipPath id="clippath-11">
      <rect class="cls-35" x="437.14" y="153.7" width="4.49" height="4.49"/>
    </clipPath>
    <clipPath id="clippath-12">
      <path class="cls-35" d="M573.26,59.1h-.2c-74.9,0-135.61,60.58-135.61,135.33s60.71,135.33,135.61,135.33c.07,0,.13,0,.2,0V59.1Z"/>
    </clipPath>
    <clipPath id="clippath-13">
      <rect class="cls-35" x="437.14" y="186.04" width=".9" height="2.7"/>
    </clipPath>
    <clipPath id="clippath-14">
      <path class="cls-35" d="M573.26,59.1h-.2c-74.9,0-135.61,60.58-135.61,135.33s60.71,135.33,135.61,135.33c.07,0,.13,0,.2,0V59.1Z"/>
    </clipPath>
    <clipPath id="clippath-15">
      <rect class="cls-35" x="437.14" y="241.74" width="10.78" height="10.78"/>
    </clipPath>
    <clipPath id="clippath-16">
      <path class="cls-35" d="M573.26,59.1h-.2c-74.9,0-135.61,60.58-135.61,135.33s60.71,135.33,135.61,135.33c.07,0,.13,0,.2,0V59.1Z"/>
    </clipPath>
    <clipPath id="clippath-17">
      <rect class="cls-35" x="437.14" y="257.02" width="2.7" height="2.7"/>
    </clipPath>
    <clipPath id="clippath-18">
      <path class="cls-35" d="M573.26,59.1h-.2c-74.9,0-135.61,60.58-135.61,135.33s60.71,135.33,135.61,135.33c.07,0,.13,0,.2,0V59.1Z"/>
    </clipPath>
    <clipPath id="clippath-19">
      <rect class="cls-35" x="453.31" y="282.17" width="10.78" height="10.78"/>
    </clipPath>
    <clipPath id="clippath-20">
      <path class="cls-35" d="M573.26,59.1h-.2c-74.9,0-135.61,60.58-135.61,135.33s60.71,135.33,135.61,135.33c.07,0,.13,0,.2,0V59.1Z"/>
    </clipPath>
    <clipPath id="clippath-21">
      <rect class="cls-35" x="437.14" y="275.88" width="5.39" height="8.09"/>
    </clipPath>
    <clipPath id="clippath-22">
      <path class="cls-35" d="M573.26,59.1h-.2c-74.9,0-135.61,60.58-135.61,135.33s60.71,135.33,135.61,135.33c.07,0,.13,0,.2,0V59.1Z"/>
    </clipPath>
    <clipPath id="clippath-23">
      <rect class="cls-35" x="449.72" y="292.95" width="5.39" height="5.39"/>
    </clipPath>
    <clipPath id="clippath-24">
      <path class="cls-35" d="M573.26,59.1h-.2c-74.9,0-135.61,60.58-135.61,135.33s60.71,135.33,135.61,135.33c.07,0,.13,0,.2,0V59.1Z"/>
    </clipPath>
    <clipPath id="clippath-25">
      <rect class="cls-35" x="465.89" y="292.05" width="2.7" height="3.59"/>
    </clipPath>
    <clipPath id="clippath-26">
      <path class="cls-35" d="M573.26,59.1h-.2c-74.9,0-135.61,60.58-135.61,135.33s60.71,135.33,135.61,135.33c.07,0,.13,0,.2,0V59.1Z"/>
    </clipPath>
    <clipPath id="clippath-27">
      <rect class="cls-35" x="439.84" y="289.36" width="3.59" height="3.59"/>
    </clipPath>
    <clipPath id="clippath-28">
      <path class="cls-35" d="M573.26,59.1h-.2c-74.9,0-135.61,60.58-135.61,135.33s60.71,135.33,135.61,135.33c.07,0,.13,0,.2,0V59.1Z"/>
    </clipPath>
    <clipPath id="clippath-29">
      <rect class="cls-35" x="443.43" y="266.9" width="2.7" height="2.7"/>
    </clipPath>
    <clipPath id="clippath-30">
      <path class="cls-35" d="M573.26,59.1h-.2c-74.9,0-135.61,60.58-135.61,135.33s60.71,135.33,135.61,135.33c.07,0,.13,0,.2,0V59.1Z"/>
    </clipPath>
    <clipPath id="clippath-31">
      <rect class="cls-35" x="474.87" y="303.73" width="8.98" height="8.98"/>
    </clipPath>
    <clipPath id="clippath-32">
      <path class="cls-35" d="M573.26,59.1h-.2c-74.9,0-135.61,60.58-135.61,135.33s60.71,135.33,135.61,135.33c.07,0,.13,0,.2,0V59.1Z"/>
    </clipPath>
    <clipPath id="clippath-33">
      <rect class="cls-35" x="491.05" y="304.63" width="3.59" height="3.59"/>
    </clipPath>
    <clipPath id="clippath-34">
      <path class="cls-35" d="M573.26,59.1h-.2c-74.9,0-135.61,60.58-135.61,135.33s60.71,135.33,135.61,135.33c.07,0,.13,0,.2,0V59.1Z"/>
    </clipPath>
    <clipPath id="clippath-35">
      <rect class="cls-35" x="475.77" y="293.85" width="2.7" height="3.59"/>
    </clipPath>
    <clipPath id="clippath-36">
      <path class="cls-35" d="M573.26,59.1h-.2c-74.9,0-135.61,60.58-135.61,135.33s60.71,135.33,135.61,135.33c.07,0,.13,0,.2,0V59.1Z"/>
    </clipPath>
    <clipPath id="clippath-37">
      <rect class="cls-35" x="488.35" y="323.5" width="8.98" height="6.29"/>
    </clipPath>
    <clipPath id="clippath-38">
      <path class="cls-35" d="M573.26,59.1h-.2c-74.9,0-135.61,60.58-135.61,135.33s60.71,135.33,135.61,135.33c.07,0,.13,0,.2,0V59.1Z"/>
    </clipPath>
    <clipPath id="clippath-39">
      <rect class="cls-35" x="510.81" y="316.31" width="5.39" height="4.49"/>
    </clipPath>
    <clipPath id="clippath-40">
      <path class="cls-35" d="M573.26,59.1h-.2c-74.9,0-135.61,60.58-135.61,135.33s60.71,135.33,135.61,135.33c.07,0,.13,0,.2,0V59.1Z"/>
    </clipPath>
    <clipPath id="clippath-41">
      <rect class="cls-35" x="498.23" y="314.51" width="2.7" height="3.59"/>
    </clipPath>
    <clipPath id="clippath-42">
      <path class="cls-35" d="M573.26,59.1h-.2c-74.9,0-135.61,60.58-135.61,135.33s60.71,135.33,135.61,135.33c.07,0,.13,0,.2,0V59.1Z"/>
    </clipPath>
    <clipPath id="clippath-43">
      <rect class="cls-35" x="474.87" y="324.39" width="2.7" height="3.59"/>
    </clipPath>
    <clipPath id="clippath-44">
      <path class="cls-35" d="M573.26,59.1h-.2c-74.9,0-135.61,60.58-135.61,135.33s60.71,135.33,135.61,135.33c.07,0,.13,0,.2,0V59.1Z"/>
    </clipPath>
    <clipPath id="clippath-45">
      <rect class="cls-35" x="551.24" y="303.73" width="5.39" height="5.39"/>
    </clipPath>
    <clipPath id="clippath-46">
      <path class="cls-35" d="M573.26,59.1h-.2c-74.9,0-135.61,60.58-135.61,135.33s60.71,135.33,135.61,135.33c.07,0,.13,0,.2,0V59.1Z"/>
    </clipPath>
  </defs>
  <g id="Layer_1" data-name="Layer 1">
    <g id="melancia">
      <g class="cls-33">
        <path class="cls-5" d="M573.26,59.1h-.2c-74.9,0-135.61,60.58-135.61,135.33s60.71,135.33,135.61,135.33c.07,0,.13,0,.2,0V59.1Z"/>
      </g>
      <g class="cls-22">
        <g class="cls-9">
          <path class="cls-49" d="M449.26,95.35c-.33,0-.66-.03-.99-.1-.33-.06-.65-.16-.95-.29-.31-.13-.6-.28-.87-.47-.28-.18-.53-.39-.77-.63-.24-.23-.45-.49-.63-.77-.19-.27-.34-.56-.47-.87-.13-.31-.22-.62-.29-.95-.06-.32-.09-.65-.09-.98s.03-.66,.09-.99c.07-.33,.16-.64,.29-.95,.13-.31,.28-.6,.47-.87,.18-.28,.39-.53,.63-.77s.49-.45,.77-.63c.27-.19,.57-.34,.87-.47s.62-.22,.95-.29c.32-.06,.65-.1,.99-.1s.66,.04,.99,.1,.64,.16,.95,.29c.31,.13,.6,.28,.87,.47,.28,.18,.53,.39,.77,.63s.44,.49,.63,.77,.34,.57,.47,.87c.13,.31,.22,.62,.29,.95,.07,.33,.1,.65,.1,.99s-.03,.66-.1,.98c-.06,.33-.16,.64-.29,.95-.13,.31-.28,.6-.47,.87-.19,.28-.39,.53-.63,.77-.24,.24-.49,.45-.77,.63-.28,.19-.57,.34-.87,.47-.31,.13-.62,.22-.95,.29-.33,.07-.65,.1-.99,.1Z"/>
        </g>
      </g>
      <g class="cls-38">
        <g class="cls-23">
          <path class="cls-49" d="M452,108.95c-.28,0-.55-.05-.82-.16s-.49-.26-.69-.46c-.2-.2-.36-.43-.46-.69-.11-.26-.16-.53-.16-.82s.06-.55,.16-.81c.11-.26,.26-.49,.46-.69,.2-.2,.43-.35,.69-.46s.53-.16,.82-.16,.55,.05,.82,.16c.26,.11,.49,.26,.69,.46s.35,.43,.46,.69c.11,.26,.16,.53,.16,.81s-.05,.55-.16,.82c-.11,.26-.26,.49-.46,.69s-.43,.35-.69,.46c-.26,.11-.53,.16-.82,.16Z"/>
        </g>
      </g>
      <g class="cls-45">
        <g class="cls-15">
          <path class="cls-49" d="M444.2,116.12c-.15,0-.29-.03-.42-.08-.14-.06-.26-.13-.36-.24-.11-.1-.18-.22-.24-.35-.06-.14-.08-.28-.08-.42s.03-.29,.08-.42,.13-.25,.24-.35c.1-.11,.22-.18,.36-.24,.13-.06,.27-.08,.42-.08s.28,.03,.42,.08c.13,.06,.25,.13,.35,.24,.11,.1,.19,.22,.24,.35,.06,.13,.08,.27,.08,.42s-.03,.28-.08,.42c-.05,.13-.13,.25-.24,.35-.1,.11-.22,.18-.35,.24-.14,.06-.28,.08-.42,.08Z"/>
        </g>
      </g>
      <g class="cls-19">
        <g class="cls-40">
          <path class="cls-49" d="M463.39,95.67c-.15,0-.29-.03-.42-.08-.14-.06-.26-.13-.36-.24-.1-.1-.18-.22-.24-.35-.06-.14-.08-.28-.08-.42s.03-.29,.08-.42,.14-.25,.24-.36c.1-.1,.22-.18,.36-.24,.13-.06,.27-.08,.42-.08s.28,.03,.42,.08c.13,.05,.25,.13,.36,.24,.1,.11,.18,.22,.24,.36s.08,.27,.08,.42-.03,.28-.08,.42c-.06,.13-.14,.25-.24,.35s-.22,.18-.36,.24c-.14,.06-.28,.08-.42,.08Z"/>
        </g>
      </g>
      <g class="cls-32">
        <g class="cls-47">
          <path class="cls-49" d="M445.67,132.94c-.28,0-.55-.05-.82-.16-.26-.11-.49-.26-.69-.46s-.35-.43-.46-.69-.16-.53-.16-.81,.06-.55,.16-.82c.11-.26,.26-.49,.46-.69s.43-.35,.69-.46c.26-.11,.53-.16,.82-.16s.55,.06,.82,.16c.26,.11,.49,.26,.69,.46,.2,.2,.36,.43,.46,.69,.11,.26,.16,.53,.16,.82s-.06,.55-.16,.81c-.11,.26-.26,.49-.46,.69-.2,.2-.43,.35-.69,.46s-.53,.16-.82,.16Z"/>
        </g>
      </g>
      <g class="cls-3">
        <g class="cls-28">
          <path class="cls-49" d="M439.19,158.19c-.28,0-.55-.05-.82-.16-.26-.11-.49-.26-.69-.46s-.35-.43-.46-.69c-.11-.26-.16-.53-.16-.81s.05-.55,.16-.82c.11-.26,.26-.49,.46-.69s.43-.35,.69-.46c.26-.11,.54-.16,.82-.16s.56,.06,.82,.16c.26,.11,.49,.26,.69,.46s.35,.43,.46,.69c.11,.26,.16,.53,.16,.82s-.06,.55-.16,.81c-.11,.26-.26,.49-.46,.69s-.43,.35-.69,.46c-.26,.11-.53,.16-.82,.16Z"/>
        </g>
      </g>
      <g class="cls-10">
        <g class="cls-43">
          <path class="cls-49" d="M436.54,188.26c-.15,0-.29-.03-.42-.08-.14-.06-.25-.14-.36-.24-.1-.1-.18-.22-.24-.35-.06-.14-.08-.28-.08-.42s.03-.29,.08-.42,.14-.25,.24-.36c.11-.1,.22-.18,.36-.24,.13-.06,.27-.08,.42-.08s.29,.03,.42,.08c.13,.05,.25,.13,.36,.24,.1,.11,.18,.22,.24,.36s.08,.27,.08,.42-.03,.28-.08,.42c-.06,.13-.14,.25-.24,.35-.11,.1-.22,.18-.36,.24s-.27,.08-.42,.08Z"/>
        </g>
      </g>
      <g class="cls-14">
        <g class="cls-4">
          <path class="cls-49" d="M442.72,252.25c-.33,0-.66-.03-.99-.09-.33-.07-.64-.16-.95-.29-.31-.13-.6-.28-.88-.47-.27-.19-.53-.4-.77-.63-.24-.24-.45-.49-.63-.77-.18-.28-.34-.57-.47-.87-.13-.31-.22-.62-.29-.95-.06-.33-.1-.66-.1-.99s.04-.66,.1-.99c.07-.33,.16-.64,.29-.95s.28-.6,.47-.87c.19-.27,.4-.53,.63-.77s.49-.44,.77-.63c.28-.18,.57-.34,.88-.47,.31-.13,.62-.22,.95-.29,.33-.06,.66-.09,.99-.09s.66,.03,.99,.09c.33,.07,.64,.16,.95,.29,.31,.13,.6,.28,.87,.47,.28,.19,.53,.39,.77,.63s.45,.49,.63,.77c.18,.28,.34,.57,.47,.87s.22,.62,.29,.95c.07,.33,.1,.65,.1,.99s-.03,.66-.1,.99c-.06,.32-.16,.64-.29,.95-.13,.31-.28,.6-.47,.87-.19,.27-.4,.53-.63,.77-.24,.23-.49,.44-.77,.63-.28,.18-.57,.34-.87,.47-.31,.13-.62,.22-.95,.29-.33,.06-.66,.09-.99,.09Z"/>
        </g>
      </g>
      <g class="cls-44">
        <g class="cls-42">
          <path class="cls-49" d="M438.08,259.67c-.14,0-.28-.03-.42-.08-.13-.05-.25-.13-.35-.24s-.18-.22-.24-.36-.08-.27-.08-.42,.03-.28,.08-.42c.06-.13,.13-.25,.24-.35,.1-.1,.22-.18,.35-.24,.14-.06,.28-.08,.42-.08s.29,.03,.42,.08c.13,.06,.25,.14,.35,.24,.11,.1,.18,.22,.24,.35,.06,.14,.08,.28,.08,.42s-.03,.29-.08,.42-.13,.25-.24,.36-.22,.18-.35,.24c-.14,.06-.28,.08-.42,.08Z"/>
        </g>
      </g>
      <g class="cls-36">
        <g class="cls-2">
          <path class="cls-49" d="M458.75,292.66c-.33,0-.66-.03-.99-.09-.32-.07-.64-.16-.95-.29-.31-.13-.6-.28-.87-.47-.28-.19-.53-.39-.77-.63s-.45-.49-.63-.77c-.19-.28-.34-.57-.47-.87-.13-.31-.22-.62-.29-.95-.06-.33-.09-.66-.09-.99s.03-.66,.09-.99c.07-.32,.16-.64,.29-.95,.13-.31,.28-.6,.47-.87,.18-.27,.39-.53,.63-.77s.49-.44,.77-.63c.27-.18,.56-.34,.87-.47,.31-.13,.62-.22,.95-.29,.33-.06,.66-.09,.99-.09s.66,.03,.99,.09c.33,.07,.64,.16,.95,.29,.31,.13,.6,.28,.87,.47,.28,.19,.53,.39,.77,.63s.44,.49,.63,.77c.19,.28,.34,.57,.47,.87,.13,.31,.22,.62,.29,.95,.07,.33,.1,.65,.1,.99s-.03,.66-.1,.99c-.06,.32-.16,.64-.29,.95-.13,.31-.28,.6-.47,.87-.19,.27-.39,.53-.63,.77s-.49,.44-.77,.63c-.28,.18-.57,.34-.87,.47-.31,.13-.62,.22-.95,.29-.33,.06-.65,.09-.99,.09Z"/>
        </g>
      </g>
      <g class="cls-20">
        <g class="cls-31">
          <path class="cls-49" d="M437.87,283.82c-.25,0-.5-.02-.74-.07-.25-.05-.48-.12-.71-.22-.23-.09-.45-.21-.66-.35-.21-.14-.4-.3-.58-.47s-.33-.36-.47-.57c-.14-.21-.26-.42-.35-.66-.09-.23-.16-.47-.21-.71-.05-.25-.07-.49-.07-.74s.02-.49,.07-.74c.05-.25,.12-.48,.21-.71s.21-.45,.35-.66c.14-.21,.3-.4,.47-.57s.37-.33,.58-.47c.21-.14,.42-.26,.66-.35,.23-.09,.47-.17,.71-.22,.24-.05,.49-.07,.74-.07s.49,.02,.74,.07c.24,.05,.48,.12,.71,.22,.23,.09,.45,.21,.66,.35,.21,.14,.4,.29,.57,.47,.18,.18,.34,.36,.47,.57s.26,.43,.35,.66,.17,.47,.22,.71c.05,.24,.07,.49,.07,.74s-.02,.49-.07,.74c-.05,.24-.12,.48-.22,.71-.09,.23-.21,.45-.35,.66s-.29,.4-.47,.57c-.18,.18-.36,.33-.57,.47-.21,.14-.43,.25-.66,.35-.23,.09-.47,.17-.71,.22-.25,.05-.49,.07-.74,.07Z"/>
        </g>
      </g>
      <g class="cls-48">
        <g class="cls-29">
          <path class="cls-49" d="M452.26,297.95c-.28,0-.55-.05-.82-.16s-.49-.26-.69-.46-.35-.43-.46-.69c-.11-.26-.16-.53-.16-.81s.06-.55,.16-.82c.11-.26,.26-.49,.46-.69s.43-.35,.69-.46c.26-.11,.53-.16,.82-.16s.55,.06,.82,.16c.26,.11,.49,.26,.69,.46s.35,.43,.46,.69c.11,.26,.16,.53,.16,.82s-.06,.55-.16,.81c-.11,.26-.26,.49-.46,.69s-.43,.35-.69,.46c-.26,.11-.53,.16-.82,.16Z"/>
        </g>
      </g>
      <g class="cls-13">
        <g class="cls-18">
          <path class="cls-49" d="M467.18,294.77c-.14,0-.28-.03-.42-.08-.13-.06-.25-.13-.36-.24s-.18-.22-.24-.35c-.05-.14-.08-.27-.08-.42s.03-.28,.08-.42c.06-.13,.14-.25,.24-.35s.22-.18,.36-.24c.14-.06,.28-.08,.42-.08s.29,.03,.42,.08c.14,.06,.26,.13,.36,.24,.1,.1,.18,.22,.24,.35,.06,.14,.08,.28,.08,.42s-.03,.28-.08,.42c-.06,.13-.14,.25-.24,.35-.1,.11-.22,.18-.36,.24-.13,.06-.27,.08-.42,.08Z"/>
        </g>
      </g>
      <g class="cls-26">
        <g class="cls-50">
          <path class="cls-49" d="M441.46,292.08c-.14,0-.28-.03-.42-.08-.13-.06-.25-.14-.35-.24-.11-.1-.18-.22-.24-.36-.06-.13-.08-.27-.08-.42s.03-.29,.08-.42c.06-.14,.13-.25,.24-.36s.22-.18,.35-.24c.14-.05,.28-.08,.42-.08s.29,.03,.42,.08c.14,.06,.26,.14,.36,.24s.18,.22,.24,.36c.06,.13,.08,.27,.08,.42s-.03,.28-.08,.42c-.06,.14-.13,.26-.24,.36-.1,.1-.22,.18-.36,.24-.13,.06-.27,.08-.42,.08Z"/>
        </g>
      </g>
      <g class="cls-41">
        <g class="cls-30">
          <path class="cls-49" d="M444.57,269.35c-.14,0-.28-.03-.42-.08-.13-.06-.25-.13-.36-.24s-.18-.22-.24-.35c-.06-.14-.08-.28-.08-.42s.03-.29,.08-.42,.14-.25,.24-.35,.22-.18,.36-.24c.14-.06,.28-.08,.42-.08s.29,.03,.42,.08c.14,.06,.26,.13,.36,.24,.1,.1,.18,.22,.24,.35s.08,.27,.08,.42-.03,.28-.08,.42c-.06,.13-.14,.25-.24,.35-.1,.11-.22,.18-.36,.24-.13,.06-.27,.08-.42,.08Z"/>
        </g>
      </g>
      <g class="cls-37">
        <g class="cls-8">
          <path class="cls-49" d="M479.27,312.18c-.25,0-.5-.02-.74-.07-.25-.05-.48-.12-.71-.21-.23-.09-.45-.21-.66-.35-.21-.14-.4-.29-.58-.47s-.33-.37-.47-.57c-.14-.21-.26-.43-.35-.66-.09-.23-.16-.47-.21-.71-.05-.24-.07-.49-.07-.74s.02-.49,.07-.74c.05-.24,.12-.48,.21-.71,.09-.23,.21-.45,.35-.66,.14-.21,.3-.4,.47-.57,.18-.18,.37-.33,.58-.47,.21-.14,.42-.25,.66-.35,.23-.1,.47-.17,.71-.22,.24-.05,.49-.07,.74-.07s.49,.02,.74,.07c.24,.05,.48,.12,.71,.22,.23,.09,.45,.21,.66,.35,.21,.14,.4,.29,.57,.47,.18,.18,.34,.36,.47,.57s.26,.42,.35,.66c.09,.23,.17,.47,.21,.71,.05,.25,.07,.49,.07,.74s-.02,.49-.07,.74c-.05,.25-.12,.48-.21,.71-.09,.23-.21,.45-.35,.66-.14,.2-.29,.4-.47,.57-.18,.18-.36,.33-.57,.47-.21,.14-.43,.26-.66,.35-.23,.09-.47,.17-.71,.21-.25,.05-.49,.07-.74,.07Z"/>
        </g>
      </g>
      <g class="cls-6">
        <g class="cls-21">
          <path class="cls-49" d="M492.97,307.6c-.14,0-.28-.03-.42-.08-.13-.06-.25-.13-.35-.24-.11-.1-.18-.22-.24-.35s-.08-.27-.08-.42,.03-.28,.08-.42c.06-.13,.13-.25,.24-.35,.1-.11,.22-.18,.35-.24,.14-.06,.28-.08,.42-.08s.29,.03,.42,.08c.13,.06,.25,.13,.35,.24,.11,.1,.18,.22,.24,.35,.06,.14,.08,.28,.08,.42s-.03,.29-.08,.42-.13,.25-.24,.35c-.1,.11-.22,.18-.35,.24-.14,.06-.28,.08-.42,.08Z"/>
        </g>
      </g>
      <g class="cls-51">
        <g class="cls-25">
          <path class="cls-49" d="M477.37,296.75c-.15,0-.29-.02-.42-.08-.14-.06-.26-.14-.36-.24-.1-.11-.18-.22-.24-.36-.06-.13-.08-.27-.08-.42s.03-.28,.08-.42c.06-.14,.14-.26,.24-.36s.22-.18,.36-.24c.13-.06,.27-.08,.42-.08s.28,.03,.42,.08c.13,.06,.25,.14,.36,.24,.1,.1,.18,.22,.24,.36,.05,.13,.08,.27,.08,.42s-.03,.29-.08,.42c-.06,.14-.14,.25-.24,.36-.11,.1-.22,.18-.36,.24-.14,.06-.28,.08-.42,.08Z"/>
        </g>
      </g>
      <g class="cls-11">
        <g class="cls-24">
          <path class="cls-49" d="M492.77,331.75c-.25,0-.5-.02-.74-.07-.25-.05-.48-.12-.71-.22-.23-.09-.45-.21-.66-.35-.21-.14-.4-.29-.58-.47s-.33-.36-.47-.57c-.14-.21-.26-.43-.35-.66s-.16-.47-.21-.71c-.05-.25-.07-.49-.07-.74s.02-.49,.07-.74c.05-.24,.12-.48,.21-.71,.09-.23,.21-.45,.35-.66,.14-.21,.3-.4,.47-.57s.37-.33,.58-.47c.21-.14,.42-.25,.66-.35,.23-.09,.47-.17,.71-.22,.24-.05,.49-.07,.74-.07s.49,.02,.74,.07c.24,.05,.48,.12,.71,.22,.23,.09,.45,.21,.66,.35,.21,.14,.4,.3,.58,.47,.18,.18,.33,.36,.47,.57s.26,.42,.35,.66c.09,.23,.17,.47,.22,.71,.05,.25,.07,.49,.07,.74s-.02,.49-.07,.74c-.05,.24-.12,.48-.22,.71s-.21,.45-.35,.66-.29,.4-.47,.57c-.18,.18-.37,.33-.58,.47-.21,.14-.43,.26-.66,.35-.23,.09-.47,.17-.71,.22-.25,.05-.49,.07-.74,.07Z"/>
        </g>
      </g>
      <g class="cls-34">
        <g class="cls-17">
          <path class="cls-49" d="M513.64,320.63c-.28,0-.56-.06-.82-.16-.26-.11-.49-.26-.69-.46-.2-.2-.35-.43-.46-.69-.11-.26-.16-.53-.16-.82s.06-.55,.16-.81c.11-.26,.26-.49,.46-.69,.2-.2,.43-.35,.69-.46,.26-.11,.53-.16,.82-.16s.55,.05,.82,.16c.26,.11,.49,.26,.69,.46s.35,.43,.46,.69c.11,.26,.16,.53,.16,.81s-.05,.55-.16,.82c-.11,.26-.26,.49-.46,.69s-.43,.35-.69,.46c-.26,.11-.53,.16-.82,.16Z"/>
        </g>
      </g>
      <g class="cls-7">
        <g class="cls-46">
          <path class="cls-49" d="M499.46,317.27c-.14,0-.28-.02-.42-.08-.13-.06-.25-.14-.36-.24-.1-.11-.18-.22-.24-.36-.06-.13-.08-.27-.08-.42s.03-.28,.08-.42c.06-.14,.14-.26,.24-.36,.11-.1,.22-.18,.36-.24,.14-.06,.28-.08,.42-.08s.29,.03,.42,.08c.14,.06,.26,.14,.36,.24s.18,.22,.24,.36c.06,.13,.08,.27,.08,.42s-.03,.29-.08,.42c-.06,.14-.14,.25-.24,.36-.1,.1-.22,.18-.36,.24-.13,.06-.27,.08-.42,.08Z"/>
        </g>
      </g>
      <g class="cls-39">
        <g class="cls-27">
          <path class="cls-49" d="M476.27,327.38c-.15,0-.29-.03-.42-.08-.14-.06-.26-.13-.36-.24-.11-.1-.18-.22-.24-.35-.06-.14-.08-.28-.08-.42s.03-.29,.08-.42,.13-.25,.24-.35c.1-.11,.22-.18,.36-.24,.13-.06,.27-.08,.42-.08s.28,.03,.42,.08c.13,.06,.25,.13,.36,.24s.18,.22,.24,.35c.05,.13,.08,.27,.08,.42s-.03,.28-.08,.42c-.06,.13-.14,.25-.24,.35s-.22,.18-.36,.24c-.14,.06-.28,.08-.42,.08Z"/>
        </g>
      </g>
      <g class="cls-1">
        <g class="cls-12">
          <path class="cls-49" d="M554,308.88c-.28,0-.55-.05-.82-.16-.26-.11-.49-.26-.69-.46-.2-.2-.35-.43-.46-.69-.11-.26-.16-.53-.16-.81s.05-.55,.16-.81c.11-.26,.26-.49,.46-.69s.43-.35,.69-.46c.26-.11,.53-.16,.82-.16s.55,.05,.82,.16,.49,.26,.69,.46c.2,.2,.36,.43,.46,.69,.11,.26,.16,.53,.16,.81s-.06,.55-.16,.81c-.11,.26-.26,.49-.46,.69-.2,.2-.43,.35-.69,.46s-.53,.16-.82,.16Z"/>
        </g>
      </g>
      <path class="cls-16" d="M546.69,160.52c-6.56,0-11.88-2.43-11.88-5.44s5.32-5.44,11.88-5.44,11.88,2.44,11.88,5.44-5.32,5.44-11.88,5.44Z"/>
      <path class="cls-16" d="M506.84,129.22c-.64-.45-1.25-.92-1.83-1.42-.59-.5-1.13-1.01-1.64-1.54s-.97-1.06-1.39-1.6c-.41-.53-.77-1.06-1.08-1.59-.3-.52-.55-1.03-.73-1.52-.18-.49-.3-.96-.35-1.4-.05-.44-.04-.85,.04-1.22,.08-.38,.22-.71,.43-1s.47-.54,.8-.73c.33-.2,.71-.35,1.14-.45s.92-.14,1.44-.13,1.09,.07,1.68,.18c.59,.11,1.21,.27,1.86,.49,.64,.21,1.3,.47,1.97,.77,.67,.31,1.33,.65,2,1.03,.66,.38,1.32,.8,1.95,1.25,.64,.45,1.25,.93,1.83,1.42,.58,.5,1.13,1.01,1.64,1.54,.51,.53,.97,1.06,1.38,1.59s.78,1.07,1.08,1.59c.31,.53,.55,1.03,.73,1.53,.18,.49,.3,.96,.35,1.4s.04,.85-.04,1.22c-.08,.37-.22,.71-.43,1s-.47,.54-.8,.74c-.33,.2-.71,.34-1.14,.44s-.92,.14-1.44,.14c-.53,0-1.09-.07-1.68-.18s-1.22-.27-1.86-.48c-.65-.21-1.3-.47-1.97-.78-.67-.3-1.33-.65-2-1.03-.67-.38-1.32-.8-1.95-1.25Z"/>
      <path class="cls-16" d="M543.53,98.92c-.64-.45-1.25-.93-1.83-1.42-.59-.49-1.13-1.01-1.64-1.54-.51-.53-.97-1.06-1.39-1.59s-.77-1.07-1.08-1.59c-.3-.53-.54-1.04-.73-1.53s-.3-.96-.35-1.4-.04-.85,.04-1.22c.08-.37,.22-.71,.43-1s.47-.54,.8-.74c.33-.2,.71-.35,1.14-.44,.44-.1,.92-.14,1.44-.14s1.09,.07,1.68,.18,1.21,.27,1.86,.48,1.3,.47,1.97,.77c.67,.31,1.33,.65,2,1.03,.66,.39,1.32,.8,1.95,1.25s1.25,.92,1.83,1.42c.58,.5,1.13,1.01,1.64,1.54s.97,1.06,1.38,1.59c.42,.54,.78,1.07,1.08,1.59,.31,.52,.55,1.03,.73,1.52,.18,.49,.3,.96,.35,1.4,.05,.44,.04,.85-.04,1.22-.08,.38-.22,.71-.43,1s-.47,.54-.8,.73c-.33,.2-.71,.35-1.14,.45-.44,.09-.92,.14-1.44,.13-.53,0-1.09-.07-1.68-.18-.6-.11-1.22-.27-1.86-.49-.65-.21-1.3-.47-1.97-.77-.67-.31-1.33-.65-2-1.03-.67-.39-1.32-.8-1.95-1.25Z"/>
      <path class="cls-16" d="M490.95,208.52c-.78,0-1.55-.05-2.32-.13s-1.51-.19-2.22-.33-1.4-.32-2.05-.52c-.65-.21-1.25-.44-1.79-.69s-1.04-.54-1.47-.84c-.43-.3-.79-.62-1.09-.95s-.52-.68-.67-1.03c-.15-.35-.22-.71-.22-1.06,0-.36,.08-.71,.24-1.06,.15-.35,.38-.69,.68-1.02,.3-.33,.67-.64,1.11-.93,.44-.29,.93-.56,1.48-.81,.55-.25,1.15-.47,1.8-.66,.65-.19,1.34-.35,2.06-.48s1.47-.23,2.23-.29c.77-.06,1.54-.09,2.32-.08,.78,0,1.55,.05,2.32,.13,.76,.08,1.51,.19,2.22,.33s1.4,.32,2.05,.52c.65,.2,1.24,.44,1.79,.69,.55,.26,1.04,.54,1.47,.84,.43,.3,.79,.62,1.09,.95,.29,.33,.52,.67,.67,1.03,.15,.35,.22,.71,.22,1.06s-.08,.71-.24,1.06c-.15,.35-.39,.69-.69,1.01-.3,.33-.67,.64-1.11,.93-.44,.29-.93,.56-1.48,.81-.55,.25-1.15,.47-1.81,.66-.65,.19-1.34,.35-2.06,.48-.72,.13-1.47,.22-2.23,.29s-1.54,.09-2.32,.08Z"/>
      <path class="cls-16" d="M475.59,162.3c-.67-.39-1.32-.81-1.94-1.26-.62-.45-1.21-.91-1.77-1.39-.55-.48-1.05-.97-1.51-1.47-.46-.5-.86-1-1.21-1.49-.35-.49-.63-.98-.85-1.46-.22-.48-.38-.93-.47-1.37-.09-.44-.11-.84-.06-1.22,.05-.38,.16-.72,.34-1.03s.43-.58,.74-.8,.68-.4,1.1-.54,.9-.22,1.42-.26c.52-.04,1.09-.02,1.69,.04,.6,.06,1.24,.17,1.9,.33,.66,.15,1.33,.36,2.02,.6s1.38,.53,2.08,.86,1.38,.69,2.05,1.08c.67,.39,1.32,.81,1.94,1.26,.62,.45,1.21,.91,1.77,1.4,.55,.48,1.06,.97,1.51,1.47,.46,.5,.86,1,1.21,1.49,.35,.5,.63,.99,.86,1.46,.22,.47,.38,.93,.47,1.37,.09,.44,.11,.85,.06,1.22s-.16,.72-.34,1.03c-.18,.31-.42,.57-.74,.8-.31,.22-.67,.4-1.1,.54-.43,.13-.9,.22-1.42,.26-.53,.04-1.09,.02-1.69-.04-.6-.06-1.24-.17-1.9-.33-.66-.15-1.33-.36-2.02-.6-.69-.25-1.38-.53-2.08-.86-.69-.33-1.38-.69-2.05-1.08Z"/>
      <path class="cls-16" d="M539.31,233.49c-5.94,2.78-9.72,7.24-8.44,9.96,1.28,2.72,7.13,2.67,13.07-.11,5.94-2.78,9.72-7.24,8.44-9.96-1.28-2.73-7.13-2.67-13.07,.11Z"/>
      <path class="cls-16" d="M550.08,298.11c.5-.6,1.02-1.17,1.56-1.71,.54-.54,1.09-1.05,1.66-1.51s1.13-.88,1.7-1.26c.56-.37,1.12-.69,1.67-.95,.55-.26,1.07-.46,1.58-.61,.51-.14,.98-.22,1.42-.24,.45-.02,.85,.02,1.22,.13,.37,.11,.69,.27,.97,.5,.27,.23,.5,.51,.67,.85,.17,.34,.29,.73,.35,1.17,.06,.44,.07,.92,.02,1.44-.05,.52-.15,1.08-.31,1.66-.16,.58-.36,1.19-.63,1.81-.26,.62-.57,1.26-.92,1.9-.35,.64-.75,1.27-1.18,1.91-.44,.63-.9,1.25-1.4,1.85-.5,.6-1.02,1.17-1.56,1.71-.54,.54-1.09,1.05-1.66,1.52-.57,.46-1.13,.88-1.7,1.25-.56,.37-1.12,.69-1.67,.95s-1.07,.46-1.58,.61-.98,.22-1.43,.24-.85-.03-1.22-.13c-.37-.11-.69-.27-.97-.5-.27-.23-.5-.52-.67-.86-.17-.34-.29-.73-.35-1.17-.06-.44-.07-.92-.02-1.45s.15-1.08,.31-1.66c.15-.59,.36-1.19,.62-1.81,.26-.62,.57-1.26,.93-1.9,.35-.64,.75-1.28,1.18-1.91s.9-1.25,1.4-1.85Z"/>
      <path class="cls-16" d="M508.11,279.43c.64-.45,1.29-.87,1.95-1.25,.67-.39,1.33-.73,2-1.03,.67-.31,1.32-.56,1.97-.78,.65-.21,1.27-.37,1.86-.48,.6-.11,1.16-.17,1.68-.18s1.01,.04,1.44,.14,.81,.25,1.14,.44c.33,.2,.6,.45,.8,.74s.35,.62,.43,1c.08,.38,.09,.78,.04,1.22s-.17,.91-.35,1.4c-.18,.49-.42,1-.73,1.53-.31,.52-.66,1.05-1.08,1.59s-.88,1.07-1.39,1.6c-.51,.53-1.05,1.04-1.64,1.54-.58,.5-1.19,.97-1.83,1.42-.64,.45-1.29,.87-1.95,1.25-.66,.39-1.33,.73-2,1.03-.67,.31-1.32,.56-1.97,.77-.64,.21-1.26,.38-1.86,.49s-1.16,.17-1.68,.18c-.52,0-1-.04-1.44-.14s-.82-.25-1.14-.45c-.33-.2-.59-.44-.8-.73s-.35-.62-.43-1c-.08-.37-.09-.78-.04-1.22s.17-.91,.35-1.4c.18-.49,.42-1,.73-1.52,.3-.53,.66-1.06,1.08-1.59,.41-.54,.87-1.07,1.38-1.6s1.06-1.04,1.64-1.54c.59-.5,1.2-.97,1.83-1.42Z"/>
      <path class="cls-16" d="M477,239.96c.68-.38,1.38-.71,2.08-1.02,.71-.3,1.41-.57,2.11-.79s1.38-.4,2.04-.54c.67-.14,1.3-.22,1.91-.27,.61-.04,1.17-.04,1.69,.02,.52,.06,.99,.15,1.41,.3s.78,.34,1.08,.58,.54,.51,.71,.82c.17,.32,.27,.66,.31,1.04,.04,.38,0,.79-.1,1.22-.11,.43-.27,.88-.51,1.35-.24,.47-.54,.94-.9,1.43-.36,.49-.78,.97-1.26,1.46s-.99,.96-1.56,1.42c-.57,.47-1.17,.91-1.81,1.34-.64,.43-1.3,.83-1.98,1.2s-1.38,.71-2.08,1.01-1.41,.57-2.11,.79-1.38,.4-2.04,.54c-.66,.13-1.3,.22-1.91,.26-.6,.04-1.17,.04-1.69-.02-.52-.05-1-.15-1.42-.3-.42-.15-.78-.34-1.08-.57s-.54-.51-.71-.82-.27-.66-.31-1.04c-.04-.38,0-.79,.11-1.22,.1-.44,.27-.88,.51-1.35,.24-.47,.54-.94,.9-1.43,.36-.48,.78-.97,1.26-1.45s.99-.96,1.56-1.42c.56-.46,1.17-.91,1.81-1.34,.64-.42,1.3-.82,1.98-1.2Z"/>
    </g>
    <path id="C" class="cls-5" d="M574.39,.87c-270.46,21.59-247.34,379.25,0,386.94v-48.69c-189.53-10.02-195.25-276.06-.01-289.79V.87Z"/>
    <path id="complemento_c" data-name="complemento c" class="cls-5" d="M629.78,49.19s-26.75-2.82-55.4,.14c.01-41.67,.01-48.47,.01-48.47,0,0,22.44-1.95,55.88,0,0,22.71-.5,48.32-.5,48.32Z"/>
    <polyline id="complemento_c-2" data-name="complemento c" class="cls-5" points="574.39 387.81 802.58 387.81 802.58 339.48 574.39 339.12"/>
    <g id="texto">
      <g>
        <path class="cls-5" d="M360.76,411.04c.36-.71,1.2-1.38,2.53-1.99,1.48-.71,2.41-1.47,2.79-2.26,.38-.79,.57-2.18,.57-4.17,0-2.19-.28-3.56-.84-4.09-.56-.54-1.76-.8-3.6-.8h-27.09l-12.47,47.29-9.13-38.8c-5.15,13.24-15.34,41.28-15.16,43.99l12.05,43.47h8.42l13.77-52.03v64.43c0,1.94-.97,3.29-2.91,4.06-1.73,.66-2.68,1.52-2.83,2.56-.15,1.05-.23,2.64-.23,4.78,0,2.5,.74,3.75,2.22,3.75h34.13c1.53,0,2.42-.22,2.68-.65,.25-.43,.38-2.64,.38-6.62,0-1.58-.94-2.83-2.83-3.75-1.38-.66-2.22-1.3-2.53-1.91-.31-.61-.46-1.58-.46-2.91v-90.83c0-1.63,.18-2.8,.54-3.52Z"/>
        <path class="cls-5" d="M400.17,467.43v31.3c0,4.13,.8,7.37,2.41,9.72,1.61,2.35,3.66,3.52,6.16,3.52,3.88,0,6.98-1.65,9.3-4.94,2.32-3.29,3.56-7.79,3.71-13.51,.05-3.06,.34-4.9,.88-5.51,.54-.61,2.38-.92,5.55-.92,2.76,0,4.5,.28,5.24,.84,.74,.56,1.11,1.96,1.11,4.21,0,7.86-2.55,14.85-7.65,20.97-5.1,6.12-11.86,9.18-20.28,9.18-9.64,0-17.83-4.37-24.56-13.12-6.73-8.75-10.1-21.92-10.1-39.52s3.11-31,9.34-40.21c6.22-9.21,14.39-13.81,24.49-13.81,8.67,0,15.64,3.88,20.89,11.63,5.25,7.76,7.88,18.77,7.88,33.06v7.12h-34.36Zm10.33-9.57v-25.33c0-4.79-1.71-7.19-5.13-7.19s-5.2,2.4-5.2,7.19v25.33h10.33Z"/>
        <path class="cls-5" d="M441.56,404v-3.83c0-1.63,1.07-2.45,3.21-2.45h23.64c1.27,0,2.12,.1,2.53,.31,.41,.2,.61,1.07,.61,2.6v106.9c0,2.35,.77,3.8,2.3,4.36,1.07,.41,1.61,1.28,1.61,2.6v4.36c0,1.58-1.15,2.37-3.44,2.37h-28.08c-1.58,0-2.37-.79-2.37-2.37v-4.36c0-1.79,.79-3.11,2.37-3.98,1.02-.51,1.66-.98,1.91-1.42,.25-.43,.38-1.26,.38-2.49v-94.81c0-1.79-.69-2.98-2.07-3.6-1.74-.87-2.6-2.27-2.6-4.21Z"/>
        <path class="cls-5" d="M521.99,447.08v-14.77c0-4.08-1.66-6.12-4.97-6.12-4.54,0-6.81,3.09-6.81,9.26,0,3.47-.4,5.94-1.19,7.42-.79,1.48-2.58,2.74-5.36,3.79-2.78,1.05-5.75,1.57-8.91,1.57-6.48,0-9.72-3.47-9.72-10.41,0-6.53,2.82-11.86,8.46-15.99,5.64-4.13,13-6.2,22.08-6.2,5.97,0,11.34,.82,16.11,2.45,4.77,1.63,8.58,4.38,11.43,8.26,2.85,3.87,4.28,8.13,4.29,12.77v69.81c.1,.36,.87,1.12,2.3,2.29,1.02,.77,1.53,1.89,1.53,3.37,0,2.04-.28,3.48-.84,4.32-.56,.84-1.93,1.62-4.09,2.33-2.17,.71-4.88,1.07-8.15,1.07-3.98,0-7.3-.73-9.95-2.18-2.65-1.45-4.72-4.3-6.2-8.53-4.44,4.59-8.04,7.52-10.79,8.8-2.76,1.27-5.59,1.91-8.49,1.91-6.47,0-11.48-2.53-15.03-7.61-3.55-5.07-5.33-13.36-5.33-24.88,0-11.52,1.66-19.51,4.98-23.97,3.31-4.46,9.79-8.57,19.43-12.34,6.12-2.34,11.2-4.48,15.23-6.42Zm0,9.95c-5.77,2.55-9.21,5.41-10.33,8.6-1.12,3.18-1.68,10.35-1.68,21.51,0,8.2,.46,13.38,1.38,15.55,.92,2.16,2.5,3.25,4.74,3.25,3.93,0,5.89-3.26,5.89-9.78v-39.12Z"/>
        <path class="cls-5" d="M586.96,427.11c6.07-7.65,13.01-11.48,20.81-11.48,5.33,0,9.41,1.72,12.22,5.17,2.82,3.44,4.23,7.77,4.23,12.97v73.31c0,1.63,.64,2.88,1.91,3.75,1.17,.72,1.76,2.55,1.76,5.51,0,2.35-.19,3.75-.57,4.21-.38,.46-1.19,.69-2.41,.69h-21.5c-3.06-2.6-4.59-5.99-4.59-10.18v-72.77c0-3.98-1.63-5.97-4.9-5.97-2.14,0-4.46,1.12-6.96,3.37v71.4c0,1.84,.89,3.26,2.68,4.29,1.07,.61,1.61,1.73,1.61,3.37v3.9c0,1.74-1.25,2.6-3.75,2.6h-27.16c-1.33,0-2.17-.19-2.53-.57-.36-.38-.54-1.34-.54-2.87v-2.83c0-1.48,.46-2.52,1.38-3.14,1.22-.87,2.01-1.68,2.37-2.45,.36-.77,.54-2.45,.54-5.05v-74.84c0-1.79-.87-3.09-2.6-3.9-.97-.46-1.45-1.27-1.45-2.45v-4.06c0-1.58,.71-2.37,2.14-2.37h24.95c1.07,0,1.73,.15,1.99,.46,.25,.31,.38,.94,.38,1.91v8.04Z"/>
        <path class="cls-5" d="M663.09,430.62v74.08c0,1.78,.52,3.38,1.57,4.78,1.05,1.4,2.51,2.1,4.4,2.1,2.55,0,4.53-1.57,5.93-4.71,1.4-3.14,2.1-7.2,2.1-12.21l-.08-2.14c0-2.7,.5-4.31,1.49-4.82,1-.51,2.69-.77,5.09-.77,2.09,0,3.52,.38,4.29,1.15s1.15,2.37,1.15,4.82c0,7.91-2.07,14.78-6.2,20.62-4.13,5.84-10,8.76-17.6,8.76-8.93,0-16.25-4.5-21.96-13.46-5.71-8.97-8.57-21.68-8.57-38.15,0-12.34,1.45-22.6,4.36-30.78,2.91-8.18,6.44-14.27,10.6-18.27,4.16-4,9.35-6,15.57-6.01,7.4,0,13.25,2.46,17.56,7.38,4.31,4.92,6.47,10.63,6.47,17.1,0,3.37-.72,6.22-2.14,8.57-1.43,2.35-3.6,3.52-6.5,3.52s-5.32-1.12-6.93-3.37-2.41-5.05-2.41-8.42c0-1.43,.15-3.09,.46-4.97,.41-2.19,.61-3.93,.61-5.2s-.49-2.45-1.45-3.37c-.97-.92-2.09-1.38-3.37-1.38s-2.27,.54-3.14,1.61c-.87,1.07-1.3,2.24-1.3,3.52Z"/>
        <path class="cls-5" d="M694.7,424.27v-5.05c0-1.68,1.02-2.52,3.06-2.52h24.41c1.73,0,2.6,.84,2.6,2.52v88c0,1.22,.07,2.02,.23,2.37,.15,.36,.6,.69,1.35,1,1.8,.72,2.71,2.3,2.71,4.74,0,2.81-.13,4.49-.38,5.05-.25,.56-1.07,.84-2.44,.84h-29.62c-.71-.1-1.17-.42-1.38-.96-.2-.54-.31-1.95-.31-4.25,0-2.75,.66-4.36,1.99-4.82,1.63-.56,2.45-1.58,2.45-3.06v-76.29c0-2.96-1.1-4.74-3.29-5.36-.92-.25-1.38-.99-1.38-2.22Zm21.43-29.31c5.76,0,8.65,1.94,8.65,5.81,0,3.06-1.93,5.65-5.78,7.77-3.85,2.12-8.23,3.18-13.12,3.18-6.33,0-9.49-2.12-9.49-6.35,0-3.37,2.22-5.94,6.66-7.73,4.44-1.79,8.8-2.68,13.08-2.68Z"/>
        <path class="cls-5" d="M774.97,447.08v-14.77c0-4.08-1.66-6.12-4.97-6.12-4.54,0-6.81,3.09-6.81,9.26,0,3.47-.4,5.94-1.19,7.42-.79,1.48-2.58,2.74-5.36,3.79-2.78,1.05-5.75,1.57-8.91,1.57-6.48,0-9.72-3.47-9.72-10.41,0-6.53,2.82-11.86,8.46-15.99,5.64-4.13,13-6.2,22.08-6.2,5.97,0,11.34,.82,16.11,2.45,4.77,1.63,8.58,4.38,11.43,8.26,2.85,3.87,4.28,8.13,4.29,12.77v69.81c.1,.36,.87,1.12,2.3,2.29,1.02,.77,1.53,1.89,1.53,3.37,0,2.04-.28,3.48-.84,4.32-.56,.84-1.93,1.62-4.09,2.33-2.17,.71-4.88,1.07-8.15,1.07-3.98,0-7.3-.73-9.95-2.18-2.65-1.45-4.72-4.3-6.2-8.53-4.44,4.59-8.04,7.52-10.79,8.8-2.76,1.27-5.59,1.91-8.49,1.91-6.47,0-11.48-2.53-15.03-7.61-3.55-5.07-5.33-13.36-5.33-24.88,0-11.52,1.66-19.51,4.98-23.97,3.31-4.46,9.79-8.57,19.43-12.34,6.12-2.34,11.2-4.48,15.23-6.42Zm0,9.95c-5.77,2.55-9.21,5.41-10.33,8.6-1.12,3.18-1.68,10.35-1.68,21.51,0,8.2,.46,13.38,1.38,15.55,.92,2.16,2.5,3.25,4.74,3.25,3.93,0,5.89-3.26,5.89-9.78v-39.12Z"/>
      </g>
    </g>
    <path id="G" class="cls-5" d="M312.13,140.08C254.45,1.88,64.3,51.9,59.54,188.85c3.46,174.5,202.41,178.6,247.62,64.85l-140.24,.25,18.91-53.71h192.93l-112.39,321.75h-60.17l54.7-153.16s-87.52,51.22-194.94-24.37C-43.68,246.24-7.12,79.9,105.7,22.09,206.96-16.89,334.51,2.89,369.82,138.58l-57.69,1.5Z"/>
  </g>
</svg>