<?xml version="1.0" encoding="UTF-8"?>
<svg id="Camada_2" data-name="Camada 2" xmlns="http://www.w3.org/2000/svg" viewBox="0 0 626.75 633.14">
  <defs>
    <style>
      .cls-1 {
        fill: none;
      }

      .cls-1, .cls-2 {
        stroke: #231f20;
        stroke-miterlimit: 10;
      }

      .cls-3, .cls-2 {
        fill: #fff;
      }

      .cls-4 {
        fill: #ff7000;
      }
    </style>
  </defs>
  <g id="principal">
    <g>
      <g>
        <g>
          <path class="cls-2" d="M54.88,548.97c-9.59,9.56-14.39,21.1-14.41,34.61-.02,13.51,4.75,25.06,14.31,34.65,9.56,9.59,21.1,14.39,34.61,14.41,5.59,0,11.03-.92,16.31-2.79l.02-15.91c-5.06,2.72-10.5,4.08-16.31,4.07-9.49-.01-17.58-3.38-24.28-10.1-6.7-6.72-10.04-14.82-10.03-24.31,.01-9.48,3.38-17.58,10.1-24.28,6.72-6.75,14.82-10.11,24.31-10.1,5.82,0,11.25,1.4,16.3,4.18l.02-15.97c-5.28-1.84-10.71-2.77-16.3-2.77-13.51-.02-25.06,4.75-34.65,14.31Z"/>
          <path class="cls-2" d="M112.75,631.73l17.25,.02,14.19-22.39,32.61,.05-.03,22.41,14.63,.02,.14-96.03-17.92-.03-60.87,95.95Zm64.08-36.89l-23.42-.03,23.47-36.94-.05,36.98Z"/>
          <polygon class="cls-2" points="207.77 631.87 222.33 631.89 222.39 591.02 248.97 591.06 248.99 576.49 222.41 576.46 222.45 550.42 256.88 550.47 256.9 535.9 207.91 535.83 207.77 631.87"/>
          <polygon class="cls-2" points="268.44 631.95 317.43 632.02 317.45 617.46 283.02 617.41 283.06 591.1 309.63 591.14 309.65 576.58 283.08 576.54 283.12 550.5 317.54 550.55 317.56 535.99 268.58 535.92 268.44 631.95"/>
          <rect class="cls-2" x="288.64" y="576.82" width="95.9" height="14.56" transform="translate(-247.99 919.85) rotate(-89.92)"/>
          <polygon class="cls-2" points="415.04 604.78 374.14 536.07 358.9 536.05 358.77 632.08 373.33 632.1 373.43 563.45 414.4 632.16 429.63 632.18 429.77 536.15 415.14 536.13 415.04 604.78"/>
          <path class="cls-2" d="M500.64,536.25l-60.87,95.95,17.25,.02,14.19-22.39,32.61,.05-.03,22.41,14.63,.02,.14-96.03-17.92-.03Zm3.2,59.06l-23.42-.03,23.47-36.94-.05,36.98Z"/>
          <path class="cls-2" d="M356.51,532.24h-27.27c0-4.42,3.4-8.1,7.8-8.44l30.29-2.38h0c0,5.98-4.85,10.82-10.82,10.82Z"/>
        </g>
        <g>
          <g>
            <g>
              <path class="cls-3" d="M186.49,515.7c-2.04-.09-3.92-.63-5.64-1.64-1.95-1.13-3.28-2.65-3.98-4.56l4.39-1.61c.36,.95,1.1,1.71,2.22,2.3,.99,.5,2.07,.78,3.23,.84,1.79,.07,3.28-.37,4.45-1.31,.99-.8,1.51-1.72,1.57-2.75,.09-1.96-1.97-3.53-6.17-4.71-6.58-1.85-9.78-4.98-9.58-9.4,.13-3.1,1.46-5.41,3.98-6.95,1.92-1.18,4.23-1.7,6.93-1.57,3.27,.14,5.9,1.28,7.87,3.42l-3.42,3.18c-1.12-1.2-2.68-1.85-4.67-1.94-1.41-.06-2.6,.12-3.59,.54-1.55,.66-2.36,1.84-2.43,3.53-.09,1.94,1.97,3.49,6.17,4.67,3.79,1.06,6.47,2.62,8.05,4.69,1.09,1.43,1.6,3.02,1.53,4.76-.12,2.44-1.22,4.5-3.31,6.2-1.95,1.56-4.29,2.34-7.01,2.34-.2,0-.39,0-.58-.02Z"/>
              <path class="cls-1" d="M186.49,515.7c-2.04-.09-3.92-.63-5.64-1.64-1.95-1.13-3.28-2.65-3.98-4.56l4.39-1.61c.36,.95,1.1,1.71,2.22,2.3,.99,.5,2.07,.78,3.23,.84,1.79,.07,3.28-.37,4.45-1.31,.99-.8,1.51-1.72,1.57-2.75,.09-1.96-1.97-3.53-6.17-4.71-6.58-1.85-9.78-4.98-9.58-9.4,.13-3.1,1.46-5.41,3.98-6.95,1.92-1.18,4.23-1.7,6.93-1.57,3.27,.14,5.9,1.28,7.87,3.42l-3.42,3.18c-1.12-1.2-2.68-1.85-4.67-1.94-1.41-.06-2.6,.12-3.59,.54-1.55,.66-2.36,1.84-2.43,3.53-.09,1.94,1.97,3.49,6.17,4.67,3.79,1.06,6.47,2.62,8.05,4.69,1.09,1.43,1.6,3.02,1.53,4.76-.12,2.44-1.22,4.5-3.31,6.2-1.95,1.56-4.29,2.34-7.01,2.34-.2,0-.39,0-.58-.02Z"/>
            </g>
            <g>
              <path class="cls-3" d="M230.95,484.63v4.67h-6.52v26.12h-4.69v-26.12h-6.52v-4.67h17.73Z"/>
              <path class="cls-1" d="M230.95,484.63v4.67h-6.52v26.12h-4.69v-26.12h-6.52v-4.67h17.73Z"/>
            </g>
            <g>
              <path class="cls-3" d="M251.76,512.49c-2.14-2.14-3.21-4.72-3.21-7.75v-20.14h4.69v20.14c0,1.74,.61,3.21,1.83,4.43,1.23,1.23,2.71,1.85,4.43,1.85s3.21-.62,4.43-1.85c1.23-1.22,1.85-2.7,1.85-4.43v-20.14h4.69v20.14c0,3.03-1.08,5.61-3.23,7.75-2.14,2.14-4.72,3.21-7.75,3.21s-5.59-1.07-7.75-3.21Z"/>
              <path class="cls-1" d="M251.76,512.49c-2.14-2.14-3.21-4.72-3.21-7.75v-20.14h4.69v20.14c0,1.74,.61,3.21,1.83,4.43,1.23,1.23,2.71,1.85,4.43,1.85s3.21-.62,4.43-1.85c1.23-1.22,1.85-2.7,1.85-4.43v-20.14h4.69v20.14c0,3.03-1.08,5.61-3.23,7.75-2.14,2.14-4.72,3.21-7.75,3.21s-5.59-1.07-7.75-3.21Z"/>
            </g>
            <g>
              <path class="cls-3" d="M288.84,515.42v-30.79h8.09c4.25,0,7.87,1.5,10.89,4.52,3,3.01,4.5,6.64,4.5,10.89s-1.5,7.85-4.5,10.87c-3.01,3.01-6.64,4.52-10.89,4.52h-8.09Zm4.65-4.65h3.44c2.95,0,5.49-1.05,7.6-3.16,2.09-2.1,3.14-4.62,3.14-7.57s-1.05-5.5-3.14-7.6c-2.11-2.11-4.64-3.16-7.6-3.16h-3.44v21.49Z"/>
              <path class="cls-1" d="M288.84,515.42v-30.79h8.09c4.25,0,7.87,1.5,10.89,4.52,3,3.01,4.5,6.64,4.5,10.89s-1.5,7.85-4.5,10.87c-3.01,3.01-6.64,4.52-10.89,4.52h-8.09Zm4.65-4.65h3.44c2.95,0,5.49-1.05,7.6-3.16,2.09-2.1,3.14-4.62,3.14-7.57s-1.05-5.5-3.14-7.6c-2.11-2.11-4.64-3.16-7.6-3.16h-3.44v21.49Z"/>
            </g>
            <g>
              <path class="cls-3" d="M334.1,515.42h-4.67v-30.75h4.67v30.75Z"/>
              <path class="cls-1" d="M334.1,515.42h-4.67v-30.75h4.67v30.75Z"/>
            </g>
            <g>
              <path class="cls-3" d="M377.55,488.91c-3.07-3.07-6.77-4.6-11.1-4.6s-8.03,1.54-11.1,4.6c-3.07,3.07-4.6,6.77-4.6,11.1s1.53,8.03,4.6,11.1c3.07,3.07,6.77,4.6,11.1,4.6s8.03-1.53,11.1-4.6c3.07-3.07,4.6-6.77,4.6-11.1s-1.54-8.03-4.6-11.1Zm-13.7,21.56s0,0,0,.01c.16,.54-.41,1.02-.91,.74-3.34-1.82-5.69-6.06-5.71-11.03-.02-5.44,2.77-10.04,6.61-11.53,1.39-.54,2.96,.17,3.46,1.57,.64,1.79,.84,3.49,.62,5.07-.3,2.08-1.28,3.44-1.84,4.07-.71,.8-1.29,1.66-1.7,2.54-1.23,2.63-1.41,5.58-.52,8.54Zm6.11,.88c-1.49,.75-3.31-.02-3.79-1.62,0-.01,0-.02,0-.03-.7-2.38-.55-4.65,.42-6.73,.31-.67,.75-1.33,1.31-1.95,.74-.83,2.04-2.63,2.43-5.35,.29-2.01,.03-4.12-.76-6.32-.09-.24,.17-.46,.39-.35,3.45,1.75,5.89,6.07,5.91,11.13,.02,5.1-2.43,9.47-5.91,11.22Z"/>
              <path class="cls-1" d="M377.55,488.91c-3.07-3.07-6.77-4.6-11.1-4.6s-8.03,1.54-11.1,4.6c-3.07,3.07-4.6,6.77-4.6,11.1s1.53,8.03,4.6,11.1c3.07,3.07,6.77,4.6,11.1,4.6s8.03-1.53,11.1-4.6c3.07-3.07,4.6-6.77,4.6-11.1s-1.54-8.03-4.6-11.1Zm-13.7,21.56s0,0,0,.01c.16,.54-.41,1.02-.91,.74-3.34-1.82-5.69-6.06-5.71-11.03-.02-5.44,2.77-10.04,6.61-11.53,1.39-.54,2.96,.17,3.46,1.57,.64,1.79,.84,3.49,.62,5.07-.3,2.08-1.28,3.44-1.84,4.07-.71,.8-1.29,1.66-1.7,2.54-1.23,2.63-1.41,5.58-.52,8.54Zm6.11,.88c-1.49,.75-3.31-.02-3.79-1.62,0-.01,0-.02,0-.03-.7-2.38-.55-4.65,.42-6.73,.31-.67,.75-1.33,1.31-1.95,.74-.83,2.04-2.63,2.43-5.35,.29-2.01,.03-4.12-.76-6.32-.09-.24,.17-.46,.39-.35,3.45,1.75,5.89,6.07,5.91,11.13,.02,5.1-2.43,9.47-5.91,11.22Z"/>
            </g>
          </g>
          <rect class="cls-4" x="40.83" y="497.49" width="116.24" height="5.63" rx="2.82" ry="2.82"/>
          <rect class="cls-4" x="402.56" y="497.49" width="116.24" height="5.63" rx="2.82" ry="2.82"/>
        </g>
      </g>
      <g>
        <g>
          <g>
            <g>
              <path class="cls-4" d="M559.27,190.95c0,6.84-5.54,12.38-12.38,12.38s-12.38-5.54-12.38-12.38,5.54-12.38,12.38-12.38,12.38,5.54,12.38,12.38Z"/>
              <path class="cls-4" d="M24.76,190.95c0,6.84-5.54,12.38-12.38,12.38s-12.38-5.54-12.38-12.38,5.54-12.38,12.38-12.38,12.38,5.54,12.38,12.38Z"/>
              <rect class="cls-4" x="271.1" y="438.87" width="24.76" height="24.76"/>
            </g>
            <g>
              <path class="cls-2" d="M552.34,228.06c.29-2.09-.24-4.17-1.52-5.85-1.28-1.68-3.13-2.77-5.26-3.05-.34-.05-.68-.07-1.02-.07-3.93,0-7.29,2.93-7.82,6.81-15.18,110.93-104.1,200.39-216.23,217.55-.06,0-.12,.03-.18,.04-.14,.02-.28,.05-.42,.08-.12,.03-.24,.06-.36,.09-.12,.03-.24,.07-.36,.11-.14,.05-.28,.1-.41,.15-.09,.04-.18,.07-.27,.11-.16,.07-.32,.15-.47,.23-.06,.03-.12,.06-.18,.1-.17,.09-.33,.2-.5,.3-.04,.03-.09,.06-.13,.09-.16,.11-.32,.23-.48,.36-.04,.03-.08,.07-.13,.1-.15,.12-.29,.25-.43,.39-.05,.05-.1,.1-.15,.15-.12,.12-.24,.25-.35,.39-.06,.07-.12,.14-.17,.21-.06,.07-.12,.14-.18,.22-.04,.05-.07,.11-.11,.16-.06,.08-.11,.17-.17,.26-.08,.13-.16,.26-.24,.39-.05,.09-.09,.18-.14,.27-.07,.14-.14,.28-.21,.43-.04,.08-.07,.17-.1,.25-.06,.16-.12,.31-.17,.47-.03,.08-.05,.16-.07,.24-.05,.17-.09,.34-.13,.51-.02,.08-.03,.16-.05,.24-.03,.18-.06,.35-.08,.53-.01,.09-.02,.17-.02,.26-.01,.17-.02,.34-.03,.51,0,.05,0,.1,0,.15,0,.06,0,.12,0,.18,0,.14,.01,.28,.02,.42,.01,.15,.03,.29,.05,.44,0,.05,0,.1,.02,.15,0,.06,.02,.11,.03,.16,.02,.14,.05,.28,.08,.42,.03,.12,.06,.25,.1,.37,.03,.1,.06,.21,.09,.31,.06,.19,.13,.37,.2,.56,.01,.03,.02,.06,.03,.09,.99,2.37,3.08,4.09,5.61,4.62,.03,0,.05,.01,.08,.02,.21,.04,.43,.07,.65,.1,.04,0,.09,.01,.13,.02,.26,.02,.52,.04,.78,.04,0,0,0,0,0,0,0,0,0,0,0,0h189.1c4.35,0,7.88-3.54,7.88-7.88s-3.54-7.88-7.88-7.88h-129.65c90.53-35.48,157.82-117.54,171.2-215.3Z"/>
              <path class="cls-2" d="M251.82,451.35s0-.07,0-.1c0-.08,0-.15-.01-.23,0-.16-.01-.32-.02-.48,0-.1-.02-.2-.03-.29-.02-.16-.04-.33-.08-.49-.02-.09-.04-.18-.06-.27-.04-.16-.08-.33-.13-.49-.03-.09-.05-.17-.08-.25-.05-.16-.11-.32-.17-.48-.03-.08-.07-.16-.11-.24-.07-.15-.14-.3-.22-.45-.04-.08-.09-.16-.13-.23-.08-.14-.17-.29-.26-.43-.05-.07-.1-.14-.15-.21-.07-.09-.13-.19-.2-.28-.04-.05-.08-.09-.12-.13-.04-.05-.09-.1-.13-.15-.13-.15-.26-.3-.4-.44-.02-.02-.04-.04-.06-.06-.71-.7-1.54-1.26-2.45-1.64-.02,0-.05-.02-.07-.03-.2-.08-.41-.16-.63-.23-.07-.02-.14-.04-.21-.06-.17-.05-.34-.09-.51-.13-.11-.02-.22-.04-.34-.06-.11-.02-.21-.04-.32-.06-115.44-14.91-206.9-104.37-222.41-217.54-.54-3.87-3.9-6.8-7.81-6.8-.35,0-.71,.02-1.06,.07-4.3,.59-7.33,4.56-6.75,8.88,13.54,98.79,81.51,180.55,173.22,215.32H48.47c-4.35,0-7.88,3.54-7.88,7.88s3.54,7.88,7.88,7.88H243.94s0,0,0,0c0,0,0,0,0,0,.26,0,.51-.01,.77-.04,.09,0,.18-.03,.28-.04,.16-.02,.31-.04,.47-.07,.11-.02,.23-.05,.34-.08,.13-.03,.25-.06,.38-.1,.12-.04,.24-.08,.36-.12,.11-.04,.22-.08,.33-.12,.12-.05,.24-.1,.36-.16,.1-.05,.2-.09,.3-.15,.12-.06,.23-.12,.35-.19,.1-.06,.19-.11,.28-.17,.11-.07,.22-.14,.33-.22,.09-.07,.18-.13,.27-.2,.1-.08,.2-.16,.3-.24,.09-.08,.18-.16,.26-.24,.09-.08,.18-.17,.26-.25,.09-.09,.17-.19,.26-.28,.08-.08,.15-.17,.22-.26,.09-.11,.17-.23,.26-.34,.06-.08,.12-.16,.18-.24,.1-.14,.18-.3,.27-.45,.04-.06,.07-.12,.11-.18,.12-.21,.22-.43,.32-.66,.04-.09,.06-.17,.1-.26,.06-.14,.11-.29,.16-.43,.03-.11,.06-.22,.09-.33,.04-.13,.07-.26,.1-.39,.02-.12,.04-.23,.06-.35,.02-.1,.04-.2,.05-.31,0-.03,0-.06,0-.1,.01-.13,.02-.26,.03-.38,0-.14,.02-.28,.02-.42Z"/>
            </g>
          </g>
          <path class="cls-2" d="M510.64,182.67h-60.16l-.04-18.55c0-1.94-.71-3.81-1.98-5.27-6.46-7.4-12.49-15.53-17.92-24.18-.81-1.28-1.62-2.56-2.38-3.84-1.84-3.12-5.54-4.61-9.04-3.66-3.49,.96-5.91,4.13-5.91,7.76l.11,82.98-12.27,13.16-.14-141.13c0-.49-.04-.97-.13-1.44-.08-.44-.2-.88-.35-1.3-15.2-42.02-17.04-78.65-17.05-79.01-.19-4.29-3.73-7.67-8.02-7.67h-3.75c-2.13,0-4.18,.85-5.68,2.36-1.51,1.51-2.35,3.55-2.35,5.69l.3,270.14-12.27,13.16-.31-283.31c0-4.43-3.6-8.02-8.03-8.02h-21.14c-2.13,0-4.18,.85-5.68,2.36-1.51,1.51-2.35,3.55-2.35,5.69l.38,330.88-12.29,13.19-.17-147.53c.12-.55,.19-1.12,.19-1.71l.22-194.82c0-2.13-.84-4.18-2.35-5.69-1.51-1.51-3.55-2.36-5.68-2.36h-21.77c-2.13,0-4.18,.85-5.68,2.36-1.51,1.51-2.35,3.55-2.35,5.69l.22,194.82c0,.59,.07,1.16,.19,1.71l-.17,147.53-12.29-13.19,.38-330.88c0-2.13-.84-4.18-2.35-5.69-1.51-1.51-3.55-2.36-5.68-2.36h-21.14c-4.43,0-8.03,3.59-8.03,8.02l-.31,283.31-12.27-13.16,.3-270.14c0-2.13-.84-4.18-2.35-5.69-1.51-1.51-3.55-2.36-5.68-2.36h-3.75c-4.3,0-7.83,3.38-8.02,7.67-.02,.36-1.86,36.99-17.05,79.01-.15,.42-.27,.86-.35,1.3-.09,.48-.13,.96-.13,1.44l-.14,141.13-12.27-13.16,.11-82.98c0-3.62-2.42-6.8-5.91-7.76-3.5-.95-7.2,.54-9.04,3.66-.76,1.28-1.57,2.56-2.38,3.84-5.43,8.65-11.46,16.77-17.92,24.18-1.27,1.46-1.98,3.33-1.98,5.27l-.04,18.55H48.62c-4.44,0-8.03,3.6-8.03,8.03s3.6,8.03,8.03,8.03H124.5c4.43,0,8.02-3.59,8.03-8.02l.05-23.6c1.72-2.04,3.42-4.12,5.07-6.24l-.08,60.19c0,2.04,.77,4,2.16,5.49l28.32,30.37s.06,.06,.09,.09c.12,.12,.24,.24,.37,.36,.08,.07,.15,.14,.23,.21,.14,.12,.28,.23,.43,.34,.07,.05,.14,.11,.21,.16,.17,.12,.35,.23,.53,.33,.05,.03,.09,.06,.14,.08,2.54,1.4,5.75,1.4,8.32-.3,2.6-1.72,3.89-4.67,3.57-7.56l.16-159.29c1.91-5.36,3.62-10.63,5.14-15.74l-.23,205.65c-.14,1.86,.39,3.76,1.55,5.33,.04,.06,.08,.12,.13,.18,.11,.14,.22,.27,.34,.4,.05,.05,.09,.11,.14,.17l28.32,30.37c.05,.06,.11,.11,.17,.16,.05,.05,.1,.11,.15,.16,.05,.05,.1,.08,.15,.13,.11,.1,.22,.19,.33,.29,.1,.09,.21,.17,.32,.25,.11,.08,.22,.16,.34,.24,.12,.08,.24,.15,.36,.23,.11,.06,.21,.12,.32,.18,.14,.07,.28,.14,.42,.21,.1,.04,.19,.09,.29,.13,.17,.07,.33,.13,.5,.18,.08,.03,.15,.05,.23,.08,.2,.06,.39,.11,.59,.15,.05,.01,.1,.02,.16,.04,.24,.05,.47,.08,.71,.11,.02,0,.04,0,.05,0,2.37,.24,4.82-.57,6.6-2.42,1.64-1.71,2.38-3.95,2.23-6.14l.32-295.08h5.07l-.38,326c0,.08,0,.15,.01,.23,0,.15,0,.29,.02,.44,.01,.13,.02,.25,.04,.37,.02,.13,.04,.27,.06,.4,.02,.13,.05,.26,.08,.39,.03,.12,.06,.25,.09,.37,.04,.13,.08,.26,.12,.39,.04,.12,.08,.24,.13,.36,.05,.13,.1,.25,.16,.37,.05,.12,.11,.23,.16,.34,.06,.12,.13,.24,.2,.36,.06,.11,.13,.21,.19,.32,.08,.12,.16,.24,.24,.36,.07,.09,.14,.19,.21,.28,.1,.12,.2,.24,.3,.36,.05,.05,.09,.11,.13,.16l28.34,30.41c1.55,1.66,3.69,2.56,5.88,2.56,.99,0,1.98-.18,2.94-.56,3.07-1.21,5.09-4.17,5.09-7.47l.42-356.42h4.45l.42,356.42c0,3.3,2.02,6.26,5.09,7.47,.95,.37,1.95,.56,2.94,.56,2.19,0,4.33-.89,5.88-2.56l28.34-30.41c.05-.05,.09-.11,.13-.16,.1-.12,.2-.23,.3-.36,.07-.09,.14-.19,.21-.28,.08-.12,.17-.23,.24-.36,.07-.1,.13-.21,.19-.32,.07-.12,.13-.24,.2-.36,.06-.11,.11-.23,.16-.34,.06-.12,.11-.25,.16-.37,.05-.12,.09-.24,.13-.36,.04-.13,.08-.26,.12-.39,.03-.12,.07-.25,.09-.37,.03-.13,.06-.26,.08-.39,.02-.13,.04-.27,.06-.4,.02-.12,.03-.25,.04-.37,.01-.15,.02-.29,.02-.44,0-.08,.01-.15,.01-.23l-.38-326h5.07l.32,295.08c-.15,2.19,.58,4.43,2.23,6.14,1.77,1.85,4.23,2.66,6.6,2.42,.02,0,.04,0,.05,0,.24-.03,.48-.06,.71-.11,.05-.01,.1-.02,.16-.04,.2-.04,.4-.09,.59-.15,.08-.02,.15-.05,.23-.08,.17-.06,.34-.12,.5-.18,.1-.04,.19-.08,.29-.13,.14-.07,.28-.13,.42-.21,.11-.06,.21-.12,.32-.18,.12-.07,.24-.15,.36-.23,.11-.08,.23-.16,.34-.24,.11-.08,.21-.16,.32-.25,.11-.09,.22-.19,.33-.29,.05-.04,.1-.08,.15-.13,.05-.05,.1-.11,.15-.16,.05-.06,.11-.1,.17-.16l28.32-30.37c.05-.05,.09-.11,.14-.17,.12-.13,.23-.26,.34-.4,.04-.06,.09-.12,.13-.18,1.16-1.57,1.69-3.46,1.55-5.33l-.23-205.65c1.52,5.11,3.23,10.37,5.14,15.74l.16,159.29c-.31,2.89,.97,5.84,3.57,7.56,2.57,1.7,5.78,1.71,8.32,.3,.05-.03,.09-.06,.14-.08,.18-.1,.36-.21,.53-.33,.07-.05,.14-.11,.21-.16,.15-.11,.29-.22,.43-.34,.08-.07,.15-.14,.23-.21,.13-.12,.25-.23,.37-.36,.03-.03,.06-.06,.09-.09l28.32-30.37c1.39-1.49,2.16-3.45,2.16-5.49l-.08-60.19c1.66,2.13,3.35,4.21,5.07,6.24l.05,23.6c0,4.43,3.6,8.02,8.03,8.02h68.18c4.44,0,8.03-3.6,8.03-8.03s-3.6-8.03-8.03-8.03Z"/>
        </g>
        <path class="cls-2" d="M575.11,193.45h0c0,3.04,1.93,5.75,4.81,6.73,18.64,6.31,32.12,23.99,32.12,44.67s-13.48,38.36-32.12,44.68c-2.88,.98-4.81,3.69-4.81,6.73h0c0,4.9,4.82,8.3,9.46,6.72,24.2-8.25,41.69-31.24,41.69-58.12s-17.49-49.87-41.69-58.12c-4.64-1.58-9.46,1.82-9.46,6.72Z"/>
      </g>
    </g>
  </g>
</svg>