<?xml version="1.0" encoding="UTF-8"?>
<svg id="Camada_2" data-name="Camada 2" xmlns="http://www.w3.org/2000/svg" viewBox="0 0 1855.79 1371.72">
  <defs>
    <style>
      .cls-1, .cls-2, .cls-3, .cls-4 {
        fill: #fff;
      }

      .cls-2 {
        fill-rule: evenodd;
      }

      .cls-3 {
        font-family: Code-Pro, 'Code Pro';
        font-size: 78.96px;
      }

      .cls-5 {
        letter-spacing: -.05em;
      }

      .cls-6 {
        letter-spacing: -.01em;
      }

      .cls-7 {
        letter-spacing: .02em;
      }

      .cls-8 {
        letter-spacing: .02em;
      }

      .cls-9 {
        letter-spacing: -.05em;
      }

      .cls-4 {
        stroke: #f2f2f2;
        stroke-miterlimit: 10;
      }

      .cls-10 {
        letter-spacing: -.1em;
      }

      .cls-11 {
        letter-spacing: .01em;
      }

      .cls-12 {
        letter-spacing: 0em;
      }

      .cls-13 {
        letter-spacing: 0em;
      }

      .cls-14 {
        letter-spacing: .01em;
      }
    </style>
  </defs>
  <g id="Layer_1" data-name="Layer 1">
    <g>
      <path class="cls-1" d="M1219.24,294.87c4.77-4.63,10.78-5.75,10.78-5.75,0,0-45.97-21.28-47.77,11.83,0,0,9.81-15.47,32.21-10.54,0,0-17.07-1.13-29.56,14.3,11.2,13.38,24.84-.63,34.34-9.84Z"/>
      <path class="cls-1" d="M1157.85,270.91c.11-4.68-2.19-8.33-2.19-8.33,0,0,33.03,13.61,16.75,30.4,0,0,3.32-12.49-9.97-21.73,0,0,8.76,8.3,6.75,22.16-12.29,.61-11.58-13.16-11.35-22.5Z"/>
    </g>
    <path class="cls-2" d="M698.26,383.19c-13.25,277.84,85.76,418.76,297.01,422.74-156.66,26.29-314.17-41.73-403.11-174.05-88.92-132.31-92.92-304.64-10.25-441-125.63,162.32-131.34,388.02-14.1,556.55,95.74,117.28,241.92,176.29,392.68,169.59,164.39-7.31,298.39-99.31,371.39-238.31-81.34,71.47-198.07,114.71-304.01,93.54-105.95-21.18-196.13-90.58-244.13-187.89,58.6,85.8,149.79,143.52,252.06,159.53-5.46-70.56-23.36-139.59-52.88-203.83-24.3-45.09-67.84-76.45-118.1-85.08-59.81-12.26-116.49-36.68-166.57-71.8Z"/>
    <g>
      <path class="cls-1" d="M1054.67,462.16c-3.89,4.04-4.81,9.12-4.81,9.12,0,0-18.13-38.74,9.82-40.38,0,0-13.03,8.34-8.79,27.23,0,0-1.02-14.41,11.97-25.01,11.34,9.41-.44,20.98-8.19,29.04Z"/>
      <path class="cls-1" d="M1034.22,410.41c-3.95,.11-7.04-1.82-7.04-1.82,0,0,11.61,27.85,25.73,14.04,0,0-10.53,2.84-18.38-8.34,0,0,7.04,7.37,18.73,5.62,.47-10.38-11.16-9.73-19.04-9.51Z"/>
    </g>
    <g>
      <path class="cls-1" d="M162,1177.74H62.2l-23.9,62.2H0l98.75-249.16h26l98.75,249.16h-37.95l-23.55-62.2Zm-86.8-33.38h73.8l-36.9-97-36.9,97Z"/>
      <path class="cls-1" d="M284.34,1239.94h-35.49v-245.99h28.82l81.18,119.48,81.18-119.48h28.12v245.99h-35.14v-173.25l-64.31,95.59h-20.03l-64.31-95.59v173.25Z"/>
      <path class="cls-1" d="M615.42,994.3c30.93,0,50.61,17.57,59.74,40.42,9.84,24.25,6.67,52.36-17.92,69.93,28.11,11.95,38.3,37.96,38.3,61.15,0,36.89-24.25,74.15-71.34,74.15h-111.05v-245.64h102.26Zm-67.12,97.69h66.42c38.66,0,39.36-63.95,.7-63.95h-67.12v63.95Zm0,113.51h75.91c23.9,0,35.84-20.02,35.84-39.35s-11.95-39.01-35.84-39.01h-75.91v78.36Z"/>
      <path class="cls-1" d="M850.2,1025.92h-45.68v181.69h45.68v32.33h-126.86v-32.33h45.68v-181.69h-45.68v-31.98h126.86v31.98Z"/>
      <path class="cls-1" d="M908.21,1204.45h114.22v35.5h-150.06v-245.64h149.71v35.5h-113.87v69.23h111.4v35.84h-111.4v69.58Z"/>
      <path class="cls-1" d="M1060.06,1239.94v-245.99h27.41l119.83,173.25v-173.25h35.15v245.99h-28.12l-118.78-171.85v171.85h-35.49Z"/>
      <path class="cls-1" d="M1348.62,1239.94v-212.25h-74.51v-33.74h184.14v33.74h-74.15v212.25h-35.49Z"/>
      <path class="cls-1" d="M1610.45,1177.74h-99.8l-23.9,62.2h-38.31l98.75-249.16h26.01l98.75,249.16h-37.96l-23.54-62.2Zm-86.8-33.38h73.8l-36.9-97-36.9,97Z"/>
      <path class="cls-1" d="M1740.17,1205.5h115.62v34.44h-151.1v-245.99h35.49v211.55Z"/>
    </g>
    <text class="cls-3" transform="translate(440.78 1353.32)"><tspan x="0" y="0">p</tspan><tspan class="cls-6" x="45.64" y="0">r</tspan><tspan class="cls-9" x="91.67" y="0">o</tspan><tspan class="cls-11" x="151.53" y="0">j</tspan><tspan class="cls-12" x="188.72" y="0">e</tspan><tspan class="cls-9" x="230.88" y="0">t</tspan><tspan x="272.89" y="0">os e con</tspan><tspan class="cls-13" x="638.17" y="0">su</tspan><tspan class="cls-10" x="736.08" y="0">l</tspan><tspan class="cls-5" x="768.69" y="0">t</tspan><tspan class="cls-14" x="810.7" y="0">o</tspan><tspan class="cls-8" x="875.53" y="0">r</tspan><tspan class="cls-7" x="924.01" y="0">i</tspan><tspan x="960.33" y="0">a</tspan></text>
    <path class="cls-1" d="M1090.41,150.91c-16.83-66.75-80.68-91.13-133.5-91.13-81.26,0-143.95,63.26-143.95,150.33s62.69,152.07,143.95,152.07c51.08,0,105.64-23.8,130.02-84.16h-153.24v-59.79h223.47c-2.9,34.83-5.81,58.05-11.61,71.98v-.58c-28.44,78.94-113.19,130.02-188.64,130.02-116.09,0-203.73-87.65-203.73-209.54S842.56,0,956.91,0c79.52,0,175.29,40.63,197.35,150.91h-63.85Z"/>
    <path class="cls-4" d="M1294.68,419.65c-8.17-36.75-47.83-52.49-83.41-51.91-27.41,.58-57.74,9.91-74.07,30.91-8.16,10.5-11.08,23.91-9.92,37.91,2.92,41.99,48.99,47.24,92.74,51.32,55.99,7,125.4,21.58,141.14,86.9,1.75,8.75,2.92,18.66,2.92,26.83,0,78.74-78.15,124.23-151.64,124.23-62.99,0-139.4-37.33-146.98-110.23l-.58-11.08,59.49-1.17,.58,8.75v-2.33c4.08,37.91,50.16,57.74,88.07,57.74,43.74,0,91.57-24.5,91.57-66.49,0-4.08-.59-8.75-1.75-14-7-30.91-48.99-36.16-89.82-40.24-63.57-6.42-138.23-20.41-144.65-105.57v.58c-2.33-27.41,4.66-54.82,22.17-77.57,27.41-35.58,76.4-54.24,123.65-54.24,62.99,0,128.31,32.66,138.81,107.32l-58.32,2.33Z"/>
  </g>
</svg>