<?xml version="1.0" encoding="utf-8"?>
<!-- Generator: Adobe Illustrator 27.0.1, SVG Export Plug-In . SVG Version: 6.00 Build 0)  -->
<svg version="1.1" id="Camada_1" xmlns="http://www.w3.org/2000/svg" xmlns:xlink="http://www.w3.org/1999/xlink" x="0px" y="0px"
	 viewBox="0 0 469 469" style="enable-background:new 0 0 469 469;" xml:space="preserve">
<style type="text/css">
	.st0{fill:#FFFFFF;}
</style>
<path class="st0" d="M10.7,85.3H32c5.9,0,10.7,4.8,10.7,10.7v277.1c0,5.9-4.8,10.7-10.7,10.7H10.7C4.8,383.7,0,379,0,373.1V95.9
	C0,90,4.8,85.3,10.7,85.3z"/>
<path class="st0" d="M74.6,85.3C68.7,85.3,64,90,64,95.9v277.1c0,5.9,4.8,10.7,10.7,10.7c5.9,0,10.7-4.8,10.7-10.7V95.9
	C85.3,90,80.5,85.3,74.6,85.3z"/>
<path class="st0" d="M117.2,85.3h21.3c5.9,0,10.7,4.8,10.7,10.7v277.1c0,5.9-4.8,10.7-10.7,10.7h-21.3c-5.9,0-10.7-4.8-10.7-10.7
	V95.9C106.6,90,111.4,85.3,117.2,85.3z"/>
<path class="st0" d="M181.2,85.3c-5.9,0-10.7,4.8-10.7,10.7v277.1c0,5.9,4.8,10.7,10.7,10.7c5.9,0,10.7-4.8,10.7-10.7V95.9
	C191.9,90,187.1,85.3,181.2,85.3z"/>
<path class="st0" d="M223.8,85.3h21.3c5.9,0,10.7,4.8,10.7,10.7v277.1c0,5.9-4.8,10.7-10.7,10.7h-21.3c-5.9,0-10.7-4.8-10.7-10.7
	V95.9C213.2,90,218,85.3,223.8,85.3z"/>
<path class="st0" d="M287.8,85.3c-5.9,0-10.7,4.8-10.7,10.7v277.1c0,5.9,4.8,10.7,10.7,10.7s10.7-4.8,10.7-10.7V95.9
	C298.5,90,293.7,85.3,287.8,85.3z"/>
<path class="st0" d="M330.4,85.3h21.3c5.9,0,10.7,4.8,10.7,10.7v277.1c0,5.9-4.8,10.7-10.7,10.7h-21.3c-5.9,0-10.7-4.8-10.7-10.7
	V95.9C319.8,90,324.5,85.3,330.4,85.3z"/>
<path class="st0" d="M394.4,85.3c-5.9,0-10.7,4.8-10.7,10.7v277.1c0,5.9,4.8,10.7,10.7,10.7S405,379,405,373.1V95.9
	C405,90,400.3,85.3,394.4,85.3z"/>
<path class="st0" d="M437,85.3h21.3c5.9,0,10.7,4.8,10.7,10.7v277.1c0,5.9-4.8,10.7-10.7,10.7H437c-5.9,0-10.7-4.8-10.7-10.7V95.9
	C426.4,90,431.1,85.3,437,85.3z"/>
</svg>
