<?xml version="1.0" encoding="utf-8"?>
<!-- Generator: Adobe Illustrator 27.0.1, SVG Export Plug-In . SVG Version: 6.00 Build 0)  -->
<svg version="1.1" id="Capa_1" xmlns="http://www.w3.org/2000/svg" xmlns:xlink="http://www.w3.org/1999/xlink" x="0px" y="0px"
	 viewBox="0 0 512 512" style="enable-background:new 0 0 512 512;" xml:space="preserve">
<style type="text/css">
	.st0{fill:#FFFFFF;}
</style>
<g>
	<g>
		<path class="st0" d="M497,0h-61c-8.3,0-15,6.7-15,15v15H298.2C292,12.6,275.5,0,256,0s-36,12.6-42.2,30H91V15c0-8.3-6.7-15-15-15
			H15C6.7,0,0,6.7,0,15v60c0,8.3,6.7,15,15,15h61c8.3,0,15-6.7,15-15V59.8h61.6c-52.1,32.5-86.4,89.6-90.5,153.6
			C44.1,219.3,31,236.1,31,256c0,24.8,20.2,45,45,45s45-20.2,45-45c0-19.1-12.1-35.4-28.9-41.9c5.1-71.3,54.9-131.4,124.1-148.6
			C223.7,80,238.6,90,256,90s32.3-10,39.8-24.5c69.2,17.2,119,77.3,124.1,148.6c-16.9,6.5-28.9,22.8-28.9,41.9c0,24.8,20.2,45,45,45
			s45-20.2,45-45c0-19.9-13.1-36.7-31.1-42.6c-4.1-64-38.4-120.9-90.5-153.4H421v15c0,8.3,6.7,15,15,15h61c8.3,0,15-6.7,15-15V15
			C512,6.7,505.3,0,497,0z"/>
	</g>
</g>
<g>
	<g>
		<path class="st0" d="M358,493.4c-7.8-24-30.4-42.4-57-42.4h-90c-26.6,0-49.2,18.4-57.1,42.4c-3,9.3,4.9,18.6,14.6,18.6h174.9
			C353.2,512,361.1,502.7,358,493.4z"/>
	</g>
</g>
<g>
	<g>
		<path class="st0" d="M388.5,307.7L271,131.5v142.3c17.4,6.2,30,22.7,30,42.2c0,24.8-20.2,45-45,45s-45-20.2-45-45
			c0-19.5,12.6-36,30-42.2V131.5L123.5,307.7c-4,5.9-3.2,13.9,1.9,18.9c27.5,27.5,45.1,63,51.9,101.1c10.4-4.2,21.8-6.7,33.7-6.7h90
			c11.9,0,23.3,2.4,33.7,6.7c6.8-38.1,24.4-73.5,51.9-101.1C391.7,321.6,392.5,313.6,388.5,307.7z"/>
	</g>
</g>
<g>
	<g>
		<path class="st0" d="M256,301c-8.3,0-15,6.7-15,15s6.7,15,15,15s15-6.7,15-15S264.3,301,256,301z"/>
	</g>
</g>
</svg>
