<?xml version="1.0" encoding="utf-8"?>
<!-- Generator: Adobe Illustrator 27.0.1, SVG Export Plug-In . SVG Version: 6.00 Build 0)  -->
<svg version="1.1" id="Capa_1" xmlns="http://www.w3.org/2000/svg" xmlns:xlink="http://www.w3.org/1999/xlink" x="0px" y="0px"
	 viewBox="0 0 380.7 380.7" style="enable-background:new 0 0 380.7 380.7;" xml:space="preserve">
<style type="text/css">
	.st0{fill:#FFFFFF;}
</style>
<g>
	<path class="st0" d="M206.8,94.5c0-17.1,0-94.5,0-94.5h-12.7h-7.5h-12.7c0,0,0,77.4,0,94.5s-32.2,37.9-32.2,62.3
		c0,24.4,0,201,0,207.2c0,6.2,4.2,16.6,13.5,16.6c6.4,0,22,0,31.4,0c4.4,0,7.5,0,7.5,0c9.4,0,25.1,0,31.4,0
		c9.3,0,13.5-10.4,13.5-16.6s0-182.8,0-207.2C239.1,132.5,206.8,111.7,206.8,94.5z M181,122.3c-2.1,2.8-4.4,6.4-6.9,10.6
		c-2.6,4.2-5,9-7.5,14.2c-0.9,2.7-1.9,5.5-2.7,8.3c0,3-1,5.2-0.6,8.9c0.2,6.9,0.5,14.3,0.8,21.8c0.5,15.1,0.6,31.3,0.7,47.4
		c0,32.3-1,64.6-2.5,88.8c-0.7,12.1-1.7,22.2-2.3,29.3c-0.6,7.1-1.1,11.1-1.1,11.1s-0.5-4-1.2-11.1c-0.5-7.1-1.6-17.1-2.3-29.3
		c-1.5-24.2-2.5-56.5-2.5-88.8c0.1-16.1,0.2-32.3,0.7-47.4c0.3-7.6,0.6-14.9,0.8-21.8c-0.1-3.2,1.1-7.6,1.8-11.1
		c1.3-3.3,2.8-6.3,4.2-9.2c1.7-2.6,3.4-5.2,4.9-7.6c1.8-2.2,3.5-4.3,5.1-6.2c3.3-3.8,6.2-7,8.8-9.5c5-5,8.3-7.5,8.3-7.5
		S185,116.5,181,122.3z"/>
</g>
</svg>
